<svg width="73" height="73" viewBox="0 0 73 73" fill="none" xmlns="http://www.w3.org/2000/svg">
<path opacity="0.1" d="M36.5157 0.5C56.3888 0.5 72.4991 16.6103 72.4991 36.4834C72.4991 56.3565 56.3888 72.4669 36.5157 72.4669C16.6426 72.4669 0.532227 56.3565 0.532227 36.4834C0.532227 16.6103 16.6426 0.5 36.5157 0.5Z" fill="#576665" stroke="#576665"/>
<path d="M31.9651 29.1668C31.745 28.7452 31.4205 28.4488 31.053 28.1856L31.0171 28.1599L30.9773 28.1409L30.9611 28.1332C30.6314 27.9757 30.2447 27.791 29.7595 27.6983L29.7592 27.6983C29.2898 27.6089 28.8274 27.6089 28.3402 27.6089L28.3153 27.6089H23.4212H22.9212V28.1089V33.3462V33.8462H23.4212H28.6527C29.6708 33.8462 30.5303 33.5803 31.2123 33.1151L31.2124 33.115C31.9991 32.578 32.2749 31.652 32.2749 30.6868C32.2749 30.1633 32.1861 29.5892 31.9651 29.1668ZM31.9651 29.1668C31.9651 29.1669 31.9652 29.167 31.9652 29.1671L31.5219 29.3984L31.9649 29.1665C31.9649 29.1666 31.965 29.1667 31.9651 29.1668ZM32.2391 25.1281L32.2592 25.1334L32.2797 25.1369C33.1387 25.2859 33.8403 25.5829 34.4723 25.9594C35.0593 26.3109 35.4973 26.7978 35.793 27.4331L35.7931 27.4334C36.0938 28.0781 36.2534 28.8882 36.2534 29.801C36.2534 30.8602 36.0156 31.6991 35.5214 32.3057L35.5096 32.3201L35.499 32.3353C35.0578 32.9673 34.2933 33.5631 33.3309 34.0236L32.1327 34.5971L33.4117 34.956C34.7615 35.3348 35.7481 36.0034 36.3432 36.8553C36.9612 37.7415 37.3496 38.85 37.3496 40.1145C37.3496 41.1659 37.1145 42.0521 36.732 42.7836C36.3519 43.5096 35.737 44.1706 35.0502 44.6079C34.3373 45.061 33.4614 45.443 32.5021 45.6717L32.502 45.6718C31.5132 45.9078 30.5412 46.0607 29.5814 46.0607H18.774V24.8222H29.3272C30.4032 24.8222 31.3691 24.9016 32.2391 25.1281ZM32.7885 41.5895L32.8104 41.5546L32.8263 41.5166C33.0033 41.094 33.2024 40.5364 33.2024 39.8729C33.2024 38.6346 32.8258 37.6729 32.0115 36.9911L31.9969 36.9789L31.9814 36.9678C31.1945 36.4052 30.1538 36.1498 28.9899 36.1498H23.4212H22.9212V36.6498V42.8545V43.3545H23.4212H28.9056C29.4596 43.3545 30.0039 43.2667 30.434 43.1846C30.91 43.0937 31.4044 42.9095 31.8131 42.6157C32.1938 42.343 32.4953 42.056 32.7885 41.5895ZM50.9317 43.5256L50.9498 43.5148L50.9669 43.5025C51.5479 43.0864 52.0005 42.6368 52.2653 42.1455H55.3483C54.7174 43.6385 53.8539 44.6992 52.7725 45.4122C51.5031 46.167 49.9927 46.6243 48.1438 46.6243C46.8577 46.6243 45.7343 46.3947 44.688 46.0108C43.6644 45.6349 42.8856 45.1132 42.1801 44.3647L42.1709 44.3549L42.1612 44.3457C41.4561 43.6734 40.9141 42.8566 40.6046 41.8949L40.599 41.8777L40.5922 41.8609C40.2 40.8899 40.0371 39.8291 40.0371 38.5835C40.0371 37.4207 40.1994 36.3602 40.5923 35.3864L40.5924 35.3861C40.9871 34.4062 41.5387 33.5742 42.2553 32.8119C42.973 32.1286 43.843 31.5283 44.7788 31.1537C45.8271 30.7698 46.8645 30.5426 48.1438 30.5426C49.5235 30.5426 50.7055 30.775 51.713 31.2935L51.7132 31.2936C52.7594 31.8316 53.5315 32.4278 54.1468 33.3101L54.1529 33.3189L54.1594 33.3274C54.7867 34.1495 55.2641 35.1291 55.5867 36.1955C55.7271 37.1446 55.8047 38.0884 55.7689 39.1314H44.0097H43.5097V39.6314C43.5097 41.0317 44.0543 42.3795 44.8461 43.1356C45.6482 43.9015 46.8077 44.2402 48.2281 44.2402C49.2429 44.2402 50.1752 43.9763 50.9317 43.5256ZM44.5083 34.354L44.5076 34.3546C44.0753 34.7674 43.8711 35.2739 43.7733 35.7421C43.7608 35.8016 43.7477 35.8619 43.7344 35.9228C43.6661 36.2353 43.594 36.5656 43.594 36.8914V37.3914H44.094H51.6877H52.2623L52.1829 36.8223C52.0019 35.5246 51.5395 34.608 50.8525 33.952C50.1426 33.2741 49.0767 32.9267 47.8908 32.9267C47.055 32.9267 46.3901 33.1055 45.8192 33.3781C45.2457 33.652 44.8608 34.0184 44.5307 34.3326L44.5083 34.354ZM43.581 26.3521H52.0321V27.5284H43.581V26.3521Z" fill="#576665" stroke="#576665"/>
</svg>
