<svg width="73" height="73" viewBox="0 0 73 73" fill="none" xmlns="http://www.w3.org/2000/svg">
<g id="Group 14">
<path id="Vector" opacity="0.1" d="M36.4942 0.5C56.3673 0.5 72.4776 16.6103 72.4776 36.4834C72.4776 56.3565 56.3673 72.4669 36.4942 72.4669C16.6211 72.4669 0.510742 56.3565 0.510742 36.4834C0.510742 16.6103 16.6211 0.5 36.4942 0.5Z" fill="#576665" stroke="#576665"/>
<path id="Vector_2" d="M37.6934 37.583H37.1934V38.083V54.2248L31.745 54.225V38.0832V37.5832H31.245H26.353V32.0976H31.2451H31.7451V31.5976V26.8145C31.7451 24.1372 32.5305 22.1307 33.8312 20.7955C35.1311 19.461 36.9997 18.7416 39.2764 18.7416C41.1273 18.7416 42.7614 18.8588 43.5947 18.9427V23.7978L40.7882 23.7991C40.7881 23.7991 40.788 23.7991 40.7879 23.7991C39.4196 23.7992 38.465 24.1373 37.8801 24.8588C37.3151 25.5559 37.1934 26.4987 37.1934 27.4565V31.5974V32.0974H37.6934H43.3108L42.6298 37.583H37.6934Z" fill="#576665" stroke="#576665"/>
</g>
</svg>
