<svg width="74" height="74" viewBox="0 0 74 74" fill="none" xmlns="http://www.w3.org/2000/svg">
<g clip-path="url(#clip0_446_7006)">
<path opacity="0.1" d="M74 37C74 16.5655 57.4345 0 37 0C16.5655 0 0 16.5655 0 37C0 57.4345 16.5655 74 37 74C57.4345 74 74 57.4345 74 37Z" fill="#576665"/>
<path d="M42.6501 37C42.6501 40.1156 40.1155 42.6502 36.9999 42.6502C33.8844 42.6502 31.3498 40.1156 31.3498 37C31.3498 33.8845 33.8844 31.3498 36.9999 31.3498C40.1155 31.3498 42.6501 33.8845 42.6501 37ZM36.9999 18.2154C26.6415 18.2154 18.2153 26.6416 18.2153 37C18.2153 47.3584 26.6415 55.7846 36.9999 55.7846C40.7944 55.7846 44.4534 54.6548 47.5811 52.5174L47.6347 52.4798L45.1042 49.5387L45.0612 49.5656C42.6541 51.1154 39.8659 51.9338 36.9999 51.9338C28.7656 51.9338 22.0662 45.2344 22.0662 37C22.0662 28.7657 28.7656 22.0662 36.9999 22.0662C45.2343 22.0662 51.9337 28.7657 51.9337 37C51.9337 38.0667 51.8143 39.1469 51.5822 40.2095C51.1099 42.1483 49.752 42.7414 48.7336 42.6636C47.7085 42.5803 46.509 41.8504 46.501 40.0632V38.7013V37C46.501 31.7604 42.2396 27.499 36.9999 27.499C31.7603 27.499 27.4989 31.7604 27.4989 37C27.4989 42.2396 31.7603 46.501 36.9999 46.501C39.5453 46.501 41.9322 45.5067 43.7315 43.6967C44.7781 45.3256 46.4835 46.3466 48.425 46.5023C48.5913 46.5157 48.7618 46.5225 48.9295 46.5225C50.2968 46.5225 51.6507 46.0649 52.7427 45.2371C53.8685 44.3811 54.7098 43.1453 55.1741 41.6599C55.2479 41.4198 55.3847 40.8709 55.3847 40.8669L55.3888 40.8469C55.6625 39.6553 55.7846 38.4679 55.7846 37C55.7846 26.6416 47.3584 18.2154 36.9999 18.2154Z" fill="#576665"/>
</g>
<defs>
<clipPath id="clip0_446_7006">
<rect width="74" height="74" fill="white"/>
</clipPath>
</defs>
</svg>
