<svg width="73" height="73" viewBox="0 0 73 73" fill="none" xmlns="http://www.w3.org/2000/svg">
<path opacity="0.1" d="M36.5049 0.5C56.378 0.5 72.4883 16.6103 72.4883 36.4834C72.4883 56.3565 56.378 72.4669 36.5049 72.4669C16.6318 72.4669 0.521484 56.3565 0.521484 36.4834C0.521484 16.6103 16.6318 0.5 36.5049 0.5Z" fill="#576665" stroke="#576665"/>
<path d="M36.505 54.725C26.4436 54.725 18.2633 46.5499 18.2633 36.4902C18.2633 26.4168 26.4436 18.2416 36.505 18.2416C46.5665 18.2416 54.7467 26.4167 54.7467 36.4764C54.7467 46.535 46.5665 54.725 36.505 54.725ZM51.8816 38.9728C51.3549 38.8016 47.0658 37.5323 42.177 38.3028C44.2155 43.896 45.041 48.4618 45.1983 49.4035C48.7042 47.0486 51.1976 43.3104 51.8816 38.9728ZM42.5897 50.844C42.3617 49.4743 41.4497 44.7087 39.2698 39.0299C39.2413 39.0447 39.1979 39.0585 39.1694 39.0585C30.3769 42.1267 27.2279 48.2187 26.9429 48.7894C29.5788 50.8441 32.8989 52.0711 36.505 52.0711C38.6575 52.086 40.7234 51.6431 42.5897 50.844ZM24.9329 46.9208C25.2886 46.3215 29.564 39.2445 37.6018 36.6329C37.8013 36.5621 38.0157 36.505 38.2152 36.4479C37.831 35.5633 37.4034 34.6787 36.9474 33.8077C29.1662 36.134 21.613 36.0336 20.9289 36.0199C20.9289 36.1762 20.9141 36.3338 20.9141 36.4902C20.9289 40.5001 22.4384 44.1528 24.9329 46.9208ZM21.2561 33.3089C21.9538 33.3226 28.367 33.3511 35.6636 31.4106C33.0847 26.8163 30.2915 22.9638 29.8924 22.4079C25.5167 24.4626 22.2685 28.4862 21.2561 33.3089ZM32.8567 21.3521C33.2842 21.9228 36.1197 25.7752 38.6713 30.4689C44.2156 28.3858 46.5517 25.2467 46.8367 24.8472C44.0867 22.4079 40.4669 20.924 36.505 20.924C35.2509 20.924 34.0253 21.0804 32.8567 21.3521ZM48.5617 26.6451C48.2345 27.0879 45.6259 30.4404 39.8684 32.7953C40.2252 33.5372 40.5809 34.2928 40.9081 35.0496C41.0221 35.3201 41.1362 35.5918 41.2513 35.8487C46.4388 35.1923 51.5829 36.2482 52.096 36.3475C52.0526 32.6811 50.7427 29.299 48.5617 26.6451Z" fill="#576665" stroke="#576665"/>
</svg>
