<svg width="73" height="73" viewBox="0 0 73 73" fill="none" xmlns="http://www.w3.org/2000/svg">
<path opacity="0.1" d="M36.5259 0.5C56.399 0.5 72.5093 16.6103 72.5093 36.4834C72.5093 56.3565 56.399 72.4669 36.5259 72.4669C16.6528 72.4669 0.54248 56.3565 0.54248 36.4834C0.54248 16.6103 16.6528 0.5 36.5259 0.5Z" fill="#576665" stroke="#576665"/>
<path d="M50.7687 39.3965L50.6821 39.3964L50.6289 39.0719L50.7137 39.0423C50.8682 38.1973 50.949 37.3225 50.949 36.4584C50.949 34.5253 50.5716 32.6452 49.8259 30.8871L49.8253 30.8858C49.106 29.1764 48.0766 27.6398 46.7636 26.3253L46.7633 26.325C45.4519 25.0101 43.9237 23.9792 42.2238 23.2615L42.2228 23.261C40.4619 22.5127 38.5923 22.1287 36.663 22.1287C35.7563 22.1287 34.8464 22.2195 33.9608 22.3913L33.928 22.4776L33.617 22.4253L33.6156 22.3393C33.6143 22.3385 33.613 22.3378 33.6117 22.337C32.4284 21.7089 31.0973 21.3752 29.7512 21.3752C27.5461 21.3752 25.4754 22.2328 23.916 23.7921C22.3565 25.363 21.4983 27.4341 21.4983 29.6453C21.4983 30.9918 21.8271 32.3116 22.4457 33.4932L22.5314 33.6524L22.6183 33.6521L22.6725 33.9661L22.5914 33.9942C22.4515 34.8031 22.3771 35.6314 22.3771 36.4584C22.3771 38.3915 22.7545 40.2715 23.5002 42.0296L23.5007 42.0309C24.22 43.7402 25.2494 45.2768 26.5604 46.5914L50.7687 39.3965ZM50.7687 39.3965C51.4487 40.6186 51.8111 42.0085 51.8111 43.4179C51.8111 45.6304 50.953 47.7113 49.394 49.2705C47.8345 50.8303 45.7645 51.688 43.5592 51.688C42.1347 51.688 40.7401 51.3246 39.5087 50.6282C39.506 50.6265 39.5032 50.6248 39.5004 50.6231L39.4993 50.5331L39.184 50.4808L39.1511 50.5679C38.3314 50.7084 37.4951 50.788 36.663 50.788C34.7348 50.788 32.8641 50.404 31.1033 49.6557L31.1021 49.6552C29.4006 48.9376 27.8744 47.9068 26.5607 46.5917L50.7687 39.3965ZM38.1655 38.8062L38.1685 38.8069C38.7997 38.961 39.1324 39.1997 39.3108 39.4233C39.4882 39.6455 39.5553 39.9055 39.5553 40.1841C39.5553 41.0032 38.7158 42.0493 36.7225 42.0493C35.7404 42.0493 35.0737 41.8607 34.5879 41.6025C34.1008 41.3436 33.7596 40.996 33.4497 40.6163C33.3504 40.4946 33.2636 40.3816 33.1741 40.2652C33.1156 40.1891 33.056 40.1116 32.9911 40.0292C32.8372 39.834 32.6691 39.6326 32.4765 39.4541C32.0731 39.08 31.5709 38.8155 30.8629 38.8155C29.5918 38.8155 28.6198 39.7253 28.6198 41.0109C28.6198 43.3644 31.3597 46.0424 36.7225 46.0424C39.2961 46.0424 41.2891 45.4203 42.6487 44.3178C44.0195 43.2063 44.6969 41.6456 44.6969 39.891C44.6969 38.7695 44.4391 37.5728 43.6386 36.5383C42.8364 35.5016 41.5342 34.686 39.557 34.2436L39.5557 34.2433L36.1022 33.4804C36.1015 33.4802 36.1007 33.4801 36.1 33.4799C35.4334 33.326 34.793 33.1631 34.3193 32.9075C33.8604 32.6598 33.6602 32.3859 33.6602 32.0209C33.6602 31.557 33.8503 31.1779 34.228 30.8993C34.6207 30.6095 35.2496 30.407 36.1401 30.407C37.0473 30.407 37.676 30.5632 38.1392 30.7777C38.6016 30.9918 38.9296 31.2778 39.2226 31.5859C39.3266 31.6952 39.4199 31.8003 39.5166 31.9092C39.5619 31.9603 39.608 32.0123 39.6564 32.0659C39.8005 32.226 39.9576 32.3929 40.1334 32.541C40.5023 32.8518 40.9504 33.0756 41.5697 33.0756C42.1682 33.0756 42.7572 32.8995 43.2075 32.5398C43.6678 32.1719 43.9632 31.6252 43.9632 30.9535C43.9632 29.4792 42.7998 28.3026 41.3945 27.5278C39.9613 26.7376 38.1166 26.2673 36.4178 26.2673C34.6033 26.2673 32.6882 26.6523 31.2094 27.592C29.706 28.5473 28.6699 30.0702 28.6699 32.2512C28.6699 33.2654 28.8503 34.3757 29.5794 35.3623C30.3097 36.3504 31.5382 37.1445 33.4936 37.634C33.4937 37.634 33.4938 37.6341 33.4939 37.6341L38.1655 38.8062Z" fill="#576665" stroke="#576665"/>
</svg>
