<svg width="73" height="73" viewBox="0 0 73 73" fill="none" xmlns="http://www.w3.org/2000/svg">
<g opacity="0.1">
<mask id="path-1-inside-1_446_7000" fill="white">
<path d="M73.0093 36.4834C73.0093 16.3342 56.6752 0 36.5259 0C16.3767 0 0.0424805 16.3342 0.0424805 36.4834C0.0424805 56.6327 16.3767 72.9669 36.5259 72.9669C56.6752 72.9669 73.0093 56.6327 73.0093 36.4834Z"/>
</mask>
<path d="M73.0093 36.4834C73.0093 16.3342 56.6752 0 36.5259 0C16.3767 0 0.0424805 16.3342 0.0424805 36.4834C0.0424805 56.6327 16.3767 72.9669 36.5259 72.9669C56.6752 72.9669 73.0093 56.6327 73.0093 36.4834Z" fill="#576665" stroke="#576665" stroke-width="2" mask="url(#path-1-inside-1_446_7000)"/>
</g>
<mask id="path-2-inside-2_446_7000" fill="white">
<path d="M51.2026 39.148C51.1932 39.2003 51.1859 39.2527 51.1755 39.3155L51.1223 38.991C51.1515 39.0433 51.1755 39.0957 51.2026 39.148C51.3644 38.2689 51.449 37.3584 51.449 36.4584C51.449 34.4595 51.0586 32.5129 50.2862 30.6919C49.542 28.9232 48.4763 27.3324 47.1173 25.9719C45.7604 24.6114 44.1781 23.5439 42.4183 22.8008C40.5959 22.0264 38.6597 21.6287 36.663 21.6287C35.7226 21.6287 34.7801 21.7229 33.8637 21.9008C33.8616 21.9008 33.8595 21.9008 33.8563 21.9008C33.9085 21.9322 33.9607 21.9531 34.0108 21.9845L33.6998 21.9322C33.752 21.9218 33.8042 21.9113 33.8563 21.9008C32.5986 21.231 31.1833 20.8752 29.7512 20.8752C27.4132 20.8752 25.2151 21.7857 23.5618 23.4392C21.9095 25.1032 20.9983 27.3011 20.9983 29.6453C20.9983 31.1419 21.3813 32.607 22.0995 33.9048C22.1088 33.8524 22.1151 33.8001 22.1256 33.7373L22.1798 34.0513C22.1517 33.999 22.1276 33.9571 22.0995 33.9048C21.9544 34.742 21.8771 35.6002 21.8771 36.4584C21.8771 38.4573 22.2675 40.4038 23.0399 42.2248C23.7841 43.9935 24.8498 45.5843 26.2066 46.9448C27.5656 48.3053 29.1459 49.3728 30.9078 50.1159C32.7302 50.8903 34.6674 51.288 36.663 51.288C37.5325 51.288 38.403 51.2043 39.2526 51.0578C39.2036 51.0264 39.1524 51.0055 39.1023 50.9741L39.4175 51.0264C39.3632 51.0368 39.3079 51.0473 39.2526 51.0578C40.5625 51.8008 42.0457 52.188 43.5592 52.188C45.8972 52.188 48.0943 51.2776 49.7476 49.624C51.4009 47.9705 52.3111 45.7622 52.3111 43.4179C52.3111 41.9213 51.9259 40.4457 51.2026 39.148ZM36.7225 45.5424C31.4693 45.5424 29.1198 42.947 29.1198 41.0109C29.1198 40.0167 29.8525 39.3155 30.8629 39.3155C33.1101 39.3155 32.5277 42.5493 36.7225 42.5493C38.8696 42.5493 40.0553 41.3876 40.0553 40.1841C40.0553 39.462 39.7015 38.6665 38.2872 38.3212L33.6153 37.149C29.8525 36.2071 29.1699 34.1664 29.1699 32.2512C29.1699 28.2639 32.9076 26.7673 36.4178 26.7673C39.6513 26.7673 43.4632 28.5674 43.4632 30.9535C43.4632 31.9792 42.5801 32.5756 41.5697 32.5756C39.6513 32.5756 40.0052 29.907 36.1401 29.907C34.2228 29.907 33.1602 30.7755 33.1602 32.0209C33.1602 33.2663 34.6747 33.6641 35.9898 33.9676L39.4478 34.7316C43.2367 35.5793 44.1969 37.7979 44.1969 39.891C44.1969 43.1249 41.7201 45.5424 36.7225 45.5424ZM39.1023 50.9741C39.1524 51.0055 39.2036 51.0264 39.2526 51.0578C39.3079 51.0473 39.3632 51.0368 39.4175 51.0264L39.1023 50.9741ZM51.1755 39.3155C51.1859 39.2527 51.1932 39.2003 51.2026 39.148C51.1755 39.0957 51.1515 39.0433 51.1223 38.991L51.1755 39.3155ZM22.1256 33.7373C22.1151 33.8001 22.1088 33.8524 22.0995 33.9048C22.1276 33.9571 22.1517 33.999 22.1798 34.0513L22.1256 33.7373ZM34.0108 21.9845C33.9607 21.9531 33.9085 21.9322 33.8563 21.9008C33.8042 21.9113 33.752 21.9218 33.6998 21.9322L34.0108 21.9845Z"/>
</mask>
<path d="M51.2026 39.148C51.1932 39.2003 51.1859 39.2527 51.1755 39.3155L51.1223 38.991C51.1515 39.0433 51.1755 39.0957 51.2026 39.148C51.3644 38.2689 51.449 37.3584 51.449 36.4584C51.449 34.4595 51.0586 32.5129 50.2862 30.6919C49.542 28.9232 48.4763 27.3324 47.1173 25.9719C45.7604 24.6114 44.1781 23.5439 42.4183 22.8008C40.5959 22.0264 38.6597 21.6287 36.663 21.6287C35.7226 21.6287 34.7801 21.7229 33.8637 21.9008C33.8616 21.9008 33.8595 21.9008 33.8563 21.9008C33.9085 21.9322 33.9607 21.9531 34.0108 21.9845L33.6998 21.9322C33.752 21.9218 33.8042 21.9113 33.8563 21.9008C32.5986 21.231 31.1833 20.8752 29.7512 20.8752C27.4132 20.8752 25.2151 21.7857 23.5618 23.4392C21.9095 25.1032 20.9983 27.3011 20.9983 29.6453C20.9983 31.1419 21.3813 32.607 22.0995 33.9048C22.1088 33.8524 22.1151 33.8001 22.1256 33.7373L22.1798 34.0513C22.1517 33.999 22.1276 33.9571 22.0995 33.9048C21.9544 34.742 21.8771 35.6002 21.8771 36.4584C21.8771 38.4573 22.2675 40.4038 23.0399 42.2248C23.7841 43.9935 24.8498 45.5843 26.2066 46.9448C27.5656 48.3053 29.1459 49.3728 30.9078 50.1159C32.7302 50.8903 34.6674 51.288 36.663 51.288C37.5325 51.288 38.403 51.2043 39.2526 51.0578C39.2036 51.0264 39.1524 51.0055 39.1023 50.9741L39.4175 51.0264C39.3632 51.0368 39.3079 51.0473 39.2526 51.0578C40.5625 51.8008 42.0457 52.188 43.5592 52.188C45.8972 52.188 48.0943 51.2776 49.7476 49.624C51.4009 47.9705 52.3111 45.7622 52.3111 43.4179C52.3111 41.9213 51.9259 40.4457 51.2026 39.148ZM36.7225 45.5424C31.4693 45.5424 29.1198 42.947 29.1198 41.0109C29.1198 40.0167 29.8525 39.3155 30.8629 39.3155C33.1101 39.3155 32.5277 42.5493 36.7225 42.5493C38.8696 42.5493 40.0553 41.3876 40.0553 40.1841C40.0553 39.462 39.7015 38.6665 38.2872 38.3212L33.6153 37.149C29.8525 36.2071 29.1699 34.1664 29.1699 32.2512C29.1699 28.2639 32.9076 26.7673 36.4178 26.7673C39.6513 26.7673 43.4632 28.5674 43.4632 30.9535C43.4632 31.9792 42.5801 32.5756 41.5697 32.5756C39.6513 32.5756 40.0052 29.907 36.1401 29.907C34.2228 29.907 33.1602 30.7755 33.1602 32.0209C33.1602 33.2663 34.6747 33.6641 35.9898 33.9676L39.4478 34.7316C43.2367 35.5793 44.1969 37.7979 44.1969 39.891C44.1969 43.1249 41.7201 45.5424 36.7225 45.5424ZM39.1023 50.9741C39.1524 51.0055 39.2036 51.0264 39.2526 51.0578C39.3079 51.0473 39.3632 51.0368 39.4175 51.0264L39.1023 50.9741ZM51.1755 39.3155C51.1859 39.2527 51.1932 39.2003 51.2026 39.148C51.1755 39.0957 51.1515 39.0433 51.1223 38.991L51.1755 39.3155ZM22.1256 33.7373C22.1151 33.8001 22.1088 33.8524 22.0995 33.9048C22.1276 33.9571 22.1517 33.999 22.1798 34.0513L22.1256 33.7373ZM34.0108 21.9845C33.9607 21.9531 33.9085 21.9322 33.8563 21.9008C33.8042 21.9113 33.752 21.9218 33.6998 21.9322L34.0108 21.9845Z" fill="#576665"/>
<path d="M51.1755 39.3155L50.1886 39.4773L52.1619 39.4795L51.1755 39.3155ZM51.1223 38.991L51.9953 38.5034L50.1354 39.1528L51.1223 38.991ZM50.2862 30.6919L49.3645 31.0797L49.3656 31.0824L50.2862 30.6919ZM47.1173 25.9719L46.4093 26.6781L46.4098 26.6786L47.1173 25.9719ZM42.4183 22.8008L42.0272 23.7212L42.0293 23.7221L42.4183 22.8008ZM33.8637 21.9008V22.9008H33.9598L34.0542 22.8825L33.8637 21.9008ZM33.8563 21.9008V20.9008H30.2543L33.3408 22.7577L33.8563 21.9008ZM34.0108 21.9845L33.8451 22.9707L34.5418 21.1371L34.0108 21.9845ZM33.6998 21.9322L33.5032 20.9518L33.5341 22.9184L33.6998 21.9322ZM33.8563 21.9008L34.053 22.8813L36.7931 22.3318L34.3264 21.0182L33.8563 21.9008ZM23.5618 23.4392L22.8546 22.7322L22.8522 22.7346L23.5618 23.4392ZM22.0995 33.9048L21.2245 34.3889L22.5866 36.8505L23.0837 34.0814L22.0995 33.9048ZM22.1256 33.7373L23.111 33.5669L21.1391 33.5733L22.1256 33.7373ZM22.1798 34.0513L21.2994 34.5255L23.1652 33.881L22.1798 34.0513ZM22.0995 33.9048L22.9799 33.4306L21.6081 30.8834L21.1141 33.734L22.0995 33.9048ZM23.0399 42.2248L23.9616 41.837L23.9605 41.8343L23.0399 42.2248ZM26.2066 46.9448L25.4986 47.6509L25.4991 47.6515L26.2066 46.9448ZM30.9078 50.1159L31.2989 49.1955L31.2964 49.1945L30.9078 50.1159ZM39.2526 51.0578L39.4226 52.0432L41.963 51.6051L39.7917 50.2155L39.2526 51.0578ZM39.1023 50.9741L39.2658 49.9876L38.5713 51.8215L39.1023 50.9741ZM39.4175 51.0264L39.6068 52.0083L39.581 50.0398L39.4175 51.0264ZM39.2526 51.0578L39.0667 50.0752L36.3873 50.5821L38.7592 51.9276L39.2526 51.0578ZM38.2872 38.3212L38.0438 39.2911L38.0499 39.2926L38.2872 38.3212ZM33.6153 37.149L33.8586 36.1791L33.8581 36.179L33.6153 37.149ZM35.9898 33.9676L35.7649 34.942L35.7741 34.9441L35.9898 33.9676ZM39.4478 34.7316L39.6662 33.7557L39.6635 33.7551L39.4478 34.7316ZM39.1023 50.9741L39.2658 49.9876L38.5713 51.8215L39.1023 50.9741ZM39.2526 51.0578L38.7136 51.9001L39.0482 52.1142L39.4385 52.0404L39.2526 51.0578ZM39.4175 51.0264L39.6068 52.0083L39.581 50.0398L39.4175 51.0264ZM51.1755 39.3155L50.1886 39.4773L52.1619 39.4795L51.1755 39.3155ZM51.2026 39.148L52.1869 39.3247L52.247 38.9897L52.0903 38.6876L51.2026 39.148ZM51.1223 38.991L51.9953 38.5034L50.1354 39.1528L51.1223 38.991ZM22.1256 33.7373L23.111 33.5669L21.1391 33.5733L22.1256 33.7373ZM22.0995 33.9048L21.1152 33.7281L21.0535 34.0716L21.219 34.3789L22.0995 33.9048ZM22.1798 34.0513L21.2994 34.5255L23.1652 33.881L22.1798 34.0513ZM34.0108 21.9845L33.8451 22.9707L34.5418 21.1371L34.0108 21.9845ZM33.8563 21.9008L34.3718 21.0439L34.0397 20.8441L33.6597 20.9203L33.8563 21.9008ZM33.6998 21.9322L33.5032 20.9518L33.5341 22.9184L33.6998 21.9322ZM50.2183 38.9713C50.209 39.0233 50.1925 39.1305 50.189 39.1515L52.1619 39.4795C52.1793 39.3749 52.1774 39.3773 52.1869 39.3247L50.2183 38.9713ZM52.1623 39.1537L52.1091 38.8292L50.1354 39.1528L50.1886 39.4773L52.1623 39.1537ZM50.2492 39.4786C50.2739 39.5228 50.2531 39.4893 50.3149 39.6084L52.0903 38.6876C52.0817 38.6711 52.076 38.6592 52.0583 38.6236C52.0435 38.5939 52.0218 38.5507 51.9953 38.5034L50.2492 39.4786ZM52.1861 39.329C52.3587 38.3911 52.449 37.42 52.449 36.4584H50.449C50.449 37.2969 50.3701 38.1467 50.2191 38.967L52.1861 39.329ZM52.449 36.4584C52.449 34.3279 52.0326 32.2483 51.2068 30.3014L49.3656 31.0824C50.0846 32.7775 50.449 34.5911 50.449 36.4584H52.449ZM51.2079 30.3041C50.4139 28.4169 49.2757 26.7177 47.8248 25.2652L46.4098 26.6786C47.6769 27.9472 48.6701 29.4295 49.3645 31.0797L51.2079 30.3041ZM47.8254 25.2658C46.3775 23.814 44.6869 22.6733 42.8073 21.8796L42.0293 23.7221C43.6692 24.4145 45.1434 25.4088 46.4093 26.6781L47.8254 25.2658ZM42.8094 21.8805C40.8638 21.0537 38.7947 20.6287 36.663 20.6287V22.6287C38.5248 22.6287 40.328 22.9991 42.0272 23.7212L42.8094 21.8805ZM36.663 20.6287C35.6564 20.6287 34.65 20.7295 33.6731 20.9191L34.0542 22.8825C34.9101 22.7163 35.7888 22.6287 36.663 22.6287V20.6287ZM33.8637 20.9008C33.8637 20.9008 33.8637 20.9008 33.8637 20.9008C33.8636 20.9008 33.8636 20.9008 33.8636 20.9008C33.8636 20.9008 33.8636 20.9008 33.8636 20.9008C33.8636 20.9008 33.8636 20.9008 33.8636 20.9008C33.8636 20.9008 33.8636 20.9008 33.8636 20.9008C33.8636 20.9008 33.8636 20.9008 33.8636 20.9008C33.8636 20.9008 33.8636 20.9008 33.8636 20.9008C33.8636 20.9008 33.8636 20.9008 33.8636 20.9008C33.8636 20.9008 33.8636 20.9008 33.8636 20.9008C33.8636 20.9008 33.8635 20.9008 33.8635 20.9008C33.8635 20.9008 33.8635 20.9008 33.8635 20.9008C33.8635 20.9008 33.8635 20.9008 33.8635 20.9008C33.8635 20.9008 33.8635 20.9008 33.8635 20.9008C33.8635 20.9008 33.8635 20.9008 33.8635 20.9008C33.8635 20.9008 33.8635 20.9008 33.8635 20.9008C33.8635 20.9008 33.8635 20.9008 33.8635 20.9008C33.8635 20.9008 33.8635 20.9008 33.8635 20.9008C33.8635 20.9008 33.8635 20.9008 33.8634 20.9008C33.8634 20.9008 33.8634 20.9008 33.8634 20.9008C33.8634 20.9008 33.8634 20.9008 33.8634 20.9008C33.8634 20.9008 33.8634 20.9008 33.8634 20.9008C33.8634 20.9008 33.8634 20.9008 33.8634 20.9008C33.8634 20.9008 33.8634 20.9008 33.8634 20.9008C33.8634 20.9008 33.8634 20.9008 33.8634 20.9008C33.8634 20.9008 33.8634 20.9008 33.8634 20.9008C33.8634 20.9008 33.8634 20.9008 33.8633 20.9008C33.8633 20.9008 33.8633 20.9008 33.8633 20.9008C33.8633 20.9008 33.8633 20.9008 33.8633 20.9008C33.8633 20.9008 33.8633 20.9008 33.8633 20.9008C33.8633 20.9008 33.8633 20.9008 33.8633 20.9008C33.8633 20.9008 33.8633 20.9008 33.8633 20.9008C33.8633 20.9008 33.8633 20.9008 33.8633 20.9008C33.8633 20.9008 33.8633 20.9008 33.8633 20.9008C33.8633 20.9008 33.8633 20.9008 33.8632 20.9008C33.8632 20.9008 33.8632 20.9008 33.8632 20.9008C33.8632 20.9008 33.8632 20.9008 33.8632 20.9008C33.8632 20.9008 33.8632 20.9008 33.8632 20.9008C33.8632 20.9008 33.8632 20.9008 33.8632 20.9008C33.8632 20.9008 33.8632 20.9008 33.8632 20.9008C33.8632 20.9008 33.8632 20.9008 33.8632 20.9008C33.8632 20.9008 33.8632 20.9008 33.8632 20.9008C33.8632 20.9008 33.8632 20.9008 33.8632 20.9008C33.8631 20.9008 33.8631 20.9008 33.8631 20.9008C33.8631 20.9008 33.8631 20.9008 33.8631 20.9008C33.8631 20.9008 33.8631 20.9008 33.8631 20.9008C33.8631 20.9008 33.8631 20.9008 33.8631 20.9008C33.8631 20.9008 33.8631 20.9008 33.8631 20.9008C33.8631 20.9008 33.8631 20.9008 33.8631 20.9008C33.8631 20.9008 33.8631 20.9008 33.8631 20.9008C33.8631 20.9008 33.8631 20.9008 33.8631 20.9008C33.863 20.9008 33.863 20.9008 33.863 20.9008C33.863 20.9008 33.863 20.9008 33.863 20.9008C33.863 20.9008 33.863 20.9008 33.863 20.9008C33.863 20.9008 33.863 20.9008 33.863 20.9008C33.863 20.9008 33.863 20.9008 33.863 20.9008C33.863 20.9008 33.863 20.9008 33.863 20.9008C33.863 20.9008 33.863 20.9008 33.863 20.9008C33.863 20.9008 33.863 20.9008 33.863 20.9008C33.863 20.9008 33.8629 20.9008 33.8629 20.9008C33.8629 20.9008 33.8629 20.9008 33.8629 20.9008C33.8629 20.9008 33.8629 20.9008 33.8629 20.9008C33.8629 20.9008 33.8629 20.9008 33.8629 20.9008C33.8629 20.9008 33.8629 20.9008 33.8629 20.9008C33.8629 20.9008 33.8629 20.9008 33.8629 20.9008C33.8629 20.9008 33.8629 20.9008 33.8629 20.9008C33.8629 20.9008 33.8629 20.9008 33.8629 20.9008C33.8629 20.9008 33.8628 20.9008 33.8628 20.9008C33.8628 20.9008 33.8628 20.9008 33.8628 20.9008C33.8628 20.9008 33.8628 20.9008 33.8628 20.9008C33.8628 20.9008 33.8628 20.9008 33.8628 20.9008C33.8628 20.9008 33.8628 20.9008 33.8628 20.9008C33.8628 20.9008 33.8628 20.9008 33.8628 20.9008C33.8628 20.9008 33.8628 20.9008 33.8628 20.9008C33.8628 20.9008 33.8628 20.9008 33.8628 20.9008C33.8628 20.9008 33.8627 20.9008 33.8627 20.9008C33.8627 20.9008 33.8627 20.9008 33.8627 20.9008C33.8627 20.9008 33.8627 20.9008 33.8627 20.9008C33.8627 20.9008 33.8627 20.9008 33.8627 20.9008C33.8627 20.9008 33.8627 20.9008 33.8627 20.9008C33.8627 20.9008 33.8627 20.9008 33.8627 20.9008C33.8627 20.9008 33.8627 20.9008 33.8627 20.9008C33.8627 20.9008 33.8627 20.9008 33.8627 20.9008C33.8627 20.9008 33.8626 20.9008 33.8626 20.9008C33.8626 20.9008 33.8626 20.9008 33.8626 20.9008C33.8626 20.9008 33.8626 20.9008 33.8626 20.9008C33.8626 20.9008 33.8626 20.9008 33.8626 20.9008C33.8626 20.9008 33.8626 20.9008 33.8626 20.9008C33.8626 20.9008 33.8626 20.9008 33.8626 20.9008C33.8626 20.9008 33.8626 20.9008 33.8626 20.9008C33.8626 20.9008 33.8626 20.9008 33.8626 20.9008C33.8626 20.9008 33.8625 20.9008 33.8625 20.9008C33.8625 20.9008 33.8625 20.9008 33.8625 20.9008C33.8625 20.9008 33.8625 20.9008 33.8625 20.9008C33.8625 20.9008 33.8625 20.9008 33.8625 20.9008C33.8625 20.9008 33.8625 20.9008 33.8625 20.9008C33.8625 20.9008 33.8625 20.9008 33.8625 20.9008C33.8625 20.9008 33.8625 20.9008 33.8625 20.9008C33.8625 20.9008 33.8625 20.9008 33.8625 20.9008C33.8625 20.9008 33.8624 20.9008 33.8624 20.9008C33.8624 20.9008 33.8624 20.9008 33.8624 20.9008C33.8624 20.9008 33.8624 20.9008 33.8624 20.9008C33.8624 20.9008 33.8624 20.9008 33.8624 20.9008C33.8624 20.9008 33.8624 20.9008 33.8624 20.9008C33.8624 20.9008 33.8624 20.9008 33.8624 20.9008C33.8624 20.9008 33.8624 20.9008 33.8624 20.9008C33.8624 20.9008 33.8624 20.9008 33.8624 20.9008C33.8624 20.9008 33.8623 20.9008 33.8623 20.9008C33.8623 20.9008 33.8623 20.9008 33.8623 20.9008C33.8623 20.9008 33.8623 20.9008 33.8623 20.9008C33.8623 20.9008 33.8623 20.9008 33.8623 20.9008C33.8623 20.9008 33.8623 20.9008 33.8623 20.9008C33.8623 20.9008 33.8623 20.9008 33.8623 20.9008C33.8623 20.9008 33.8623 20.9008 33.8623 20.9008C33.8623 20.9008 33.8623 20.9008 33.8623 20.9008C33.8623 20.9008 33.8622 20.9008 33.8622 20.9008C33.8622 20.9008 33.8622 20.9008 33.8622 20.9008C33.8622 20.9008 33.8622 20.9008 33.8622 20.9008C33.8622 20.9008 33.8622 20.9008 33.8622 20.9008C33.8622 20.9008 33.8622 20.9008 33.8622 20.9008C33.8622 20.9008 33.8622 20.9008 33.8622 20.9008C33.8622 20.9008 33.8622 20.9008 33.8622 20.9008C33.8622 20.9008 33.8622 20.9008 33.8622 20.9008C33.8622 20.9008 33.8621 20.9008 33.8621 20.9008C33.8621 20.9008 33.8621 20.9008 33.8621 20.9008C33.8621 20.9008 33.8621 20.9008 33.8621 20.9008C33.8621 20.9008 33.8621 20.9008 33.8621 20.9008C33.8621 20.9008 33.8621 20.9008 33.8621 20.9008C33.8621 20.9008 33.8621 20.9008 33.8621 20.9008C33.8621 20.9008 33.8621 20.9008 33.8621 20.9008C33.8621 20.9008 33.8621 20.9008 33.8621 20.9008C33.8621 20.9008 33.862 20.9008 33.862 20.9008C33.862 20.9008 33.862 20.9008 33.862 20.9008C33.862 20.9008 33.862 20.9008 33.862 20.9008C33.862 20.9008 33.862 20.9008 33.862 20.9008C33.862 20.9008 33.862 20.9008 33.862 20.9008C33.862 20.9008 33.862 20.9008 33.862 20.9008C33.862 20.9008 33.862 20.9008 33.862 20.9008C33.862 20.9008 33.862 20.9008 33.862 20.9008C33.8619 20.9008 33.8619 20.9008 33.8619 20.9008C33.8619 20.9008 33.8619 20.9008 33.8619 20.9008C33.8619 20.9008 33.8619 20.9008 33.8619 20.9008C33.8619 20.9008 33.8619 20.9008 33.8619 20.9008C33.8619 20.9008 33.8619 20.9008 33.8619 20.9008C33.8619 20.9008 33.8619 20.9008 33.8619 20.9008C33.8619 20.9008 33.8619 20.9008 33.8619 20.9008C33.8619 20.9008 33.8619 20.9008 33.8619 20.9008C33.8618 20.9008 33.8618 20.9008 33.8618 20.9008C33.8618 20.9008 33.8618 20.9008 33.8618 20.9008C33.8618 20.9008 33.8618 20.9008 33.8618 20.9008C33.8618 20.9008 33.8618 20.9008 33.8618 20.9008C33.8618 20.9008 33.8618 20.9008 33.8618 20.9008C33.8618 20.9008 33.8618 20.9008 33.8618 20.9008C33.8618 20.9008 33.8618 20.9008 33.8618 20.9008C33.8618 20.9008 33.8618 20.9008 33.8617 20.9008C33.8617 20.9008 33.8617 20.9008 33.8617 20.9008C33.8617 20.9008 33.8617 20.9008 33.8617 20.9008C33.8617 20.9008 33.8617 20.9008 33.8617 20.9008C33.8617 20.9008 33.8617 20.9008 33.8617 20.9008C33.8617 20.9008 33.8617 20.9008 33.8617 20.9008C33.8617 20.9008 33.8617 20.9008 33.8617 20.9008C33.8617 20.9008 33.8617 20.9008 33.8617 20.9008C33.8617 20.9008 33.8617 20.9008 33.8616 20.9008C33.8616 20.9008 33.8616 20.9008 33.8616 20.9008C33.8616 20.9008 33.8616 20.9008 33.8616 20.9008C33.8616 20.9008 33.8616 20.9008 33.8616 20.9008C33.8616 20.9008 33.8616 20.9008 33.8616 20.9008C33.8616 20.9008 33.8616 20.9008 33.8616 20.9008C33.8616 20.9008 33.8616 20.9008 33.8616 20.9008C33.8616 20.9008 33.8616 20.9008 33.8616 20.9008C33.8616 20.9008 33.8615 20.9008 33.8615 20.9008C33.8615 20.9008 33.8615 20.9008 33.8615 20.9008C33.8615 20.9008 33.8615 20.9008 33.8615 20.9008C33.8615 20.9008 33.8615 20.9008 33.8615 20.9008C33.8615 20.9008 33.8615 20.9008 33.8615 20.9008C33.8615 20.9008 33.8615 20.9008 33.8615 20.9008C33.8615 20.9008 33.8615 20.9008 33.8615 20.9008C33.8615 20.9008 33.8615 20.9008 33.8615 20.9008C33.8614 20.9008 33.8614 20.9008 33.8614 20.9008C33.8614 20.9008 33.8614 20.9008 33.8614 20.9008C33.8614 20.9008 33.8614 20.9008 33.8614 20.9008C33.8614 20.9008 33.8614 20.9008 33.8614 20.9008C33.8614 20.9008 33.8614 20.9008 33.8614 20.9008C33.8614 20.9008 33.8614 20.9008 33.8614 20.9008C33.8614 20.9008 33.8614 20.9008 33.8614 20.9008C33.8614 20.9008 33.8614 20.9008 33.8613 20.9008C33.8613 20.9008 33.8613 20.9008 33.8613 20.9008C33.8613 20.9008 33.8613 20.9008 33.8613 20.9008C33.8613 20.9008 33.8613 20.9008 33.8613 20.9008C33.8613 20.9008 33.8613 20.9008 33.8613 20.9008C33.8613 20.9008 33.8613 20.9008 33.8613 20.9008C33.8613 20.9008 33.8613 20.9008 33.8613 20.9008C33.8613 20.9008 33.8613 20.9008 33.8613 20.9008C33.8613 20.9008 33.8612 20.9008 33.8612 20.9008C33.8612 20.9008 33.8612 20.9008 33.8612 20.9008C33.8612 20.9008 33.8612 20.9008 33.8612 20.9008C33.8612 20.9008 33.8612 20.9008 33.8612 20.9008C33.8612 20.9008 33.8612 20.9008 33.8612 20.9008C33.8612 20.9008 33.8612 20.9008 33.8612 20.9008C33.8612 20.9008 33.8612 20.9008 33.8612 20.9008C33.8612 20.9008 33.8612 20.9008 33.8612 20.9008C33.8611 20.9008 33.8611 20.9008 33.8611 20.9008C33.8611 20.9008 33.8611 20.9008 33.8611 20.9008C33.8611 20.9008 33.8611 20.9008 33.8611 20.9008C33.8611 20.9008 33.8611 20.9008 33.8611 20.9008C33.8611 20.9008 33.8611 20.9008 33.8611 20.9008C33.8611 20.9008 33.8611 20.9008 33.8611 20.9008C33.8611 20.9008 33.8611 20.9008 33.8611 20.9008C33.8611 20.9008 33.861 20.9008 33.861 20.9008C33.861 20.9008 33.861 20.9008 33.861 20.9008C33.861 20.9008 33.861 20.9008 33.861 20.9008C33.861 20.9008 33.861 20.9008 33.861 20.9008C33.861 20.9008 33.861 20.9008 33.861 20.9008C33.861 20.9008 33.861 20.9008 33.861 20.9008C33.861 20.9008 33.861 20.9008 33.861 20.9008C33.861 20.9008 33.861 20.9008 33.861 20.9008C33.8609 20.9008 33.8609 20.9008 33.8609 20.9008C33.8609 20.9008 33.8609 20.9008 33.8609 20.9008C33.8609 20.9008 33.8609 20.9008 33.8609 20.9008C33.8609 20.9008 33.8609 20.9008 33.8609 20.9008C33.8609 20.9008 33.8609 20.9008 33.8609 20.9008C33.8609 20.9008 33.8609 20.9008 33.8609 20.9008C33.8609 20.9008 33.8609 20.9008 33.8609 20.9008C33.8609 20.9008 33.8608 20.9008 33.8608 20.9008C33.8608 20.9008 33.8608 20.9008 33.8608 20.9008C33.8608 20.9008 33.8608 20.9008 33.8608 20.9008C33.8608 20.9008 33.8608 20.9008 33.8608 20.9008C33.8608 20.9008 33.8608 20.9008 33.8608 20.9008C33.8608 20.9008 33.8608 20.9008 33.8608 20.9008C33.8608 20.9008 33.8608 20.9008 33.8608 20.9008C33.8608 20.9008 33.8608 20.9008 33.8607 20.9008C33.8607 20.9008 33.8607 20.9008 33.8607 20.9008C33.8607 20.9008 33.8607 20.9008 33.8607 20.9008C33.8607 20.9008 33.8607 20.9008 33.8607 20.9008C33.8607 20.9008 33.8607 20.9008 33.8607 20.9008C33.8607 20.9008 33.8607 20.9008 33.8607 20.9008C33.8607 20.9008 33.8607 20.9008 33.8607 20.9008C33.8607 20.9008 33.8607 20.9008 33.8607 20.9008C33.8607 20.9008 33.8606 20.9008 33.8606 20.9008C33.8606 20.9008 33.8606 20.9008 33.8606 20.9008C33.8606 20.9008 33.8606 20.9008 33.8606 20.9008C33.8606 20.9008 33.8606 20.9008 33.8606 20.9008C33.8606 20.9008 33.8606 20.9008 33.8606 20.9008C33.8606 20.9008 33.8606 20.9008 33.8606 20.9008C33.8606 20.9008 33.8606 20.9008 33.8606 20.9008C33.8606 20.9008 33.8605 20.9008 33.8605 20.9008C33.8605 20.9008 33.8605 20.9008 33.8605 20.9008C33.8605 20.9008 33.8605 20.9008 33.8605 20.9008C33.8605 20.9008 33.8605 20.9008 33.8605 20.9008C33.8605 20.9008 33.8605 20.9008 33.8605 20.9008C33.8605 20.9008 33.8605 20.9008 33.8605 20.9008C33.8605 20.9008 33.8605 20.9008 33.8605 20.9008C33.8605 20.9008 33.8605 20.9008 33.8604 20.9008C33.8604 20.9008 33.8604 20.9008 33.8604 20.9008C33.8604 20.9008 33.8604 20.9008 33.8604 20.9008C33.8604 20.9008 33.8604 20.9008 33.8604 20.9008C33.8604 20.9008 33.8604 20.9008 33.8604 20.9008C33.8604 20.9008 33.8604 20.9008 33.8604 20.9008C33.8604 20.9008 33.8604 20.9008 33.8604 20.9008C33.8604 20.9008 33.8604 20.9008 33.8604 20.9008C33.8603 20.9008 33.8603 20.9008 33.8603 20.9008C33.8603 20.9008 33.8603 20.9008 33.8603 20.9008C33.8603 20.9008 33.8603 20.9008 33.8603 20.9008C33.8603 20.9008 33.8603 20.9008 33.8603 20.9008C33.8603 20.9008 33.8603 20.9008 33.8603 20.9008C33.8603 20.9008 33.8603 20.9008 33.8603 20.9008C33.8603 20.9008 33.8603 20.9008 33.8603 20.9008C33.8603 20.9008 33.8602 20.9008 33.8602 20.9008C33.8602 20.9008 33.8602 20.9008 33.8602 20.9008C33.8602 20.9008 33.8602 20.9008 33.8602 20.9008C33.8602 20.9008 33.8602 20.9008 33.8602 20.9008C33.8602 20.9008 33.8602 20.9008 33.8602 20.9008C33.8602 20.9008 33.8602 20.9008 33.8602 20.9008C33.8602 20.9008 33.8602 20.9008 33.8602 20.9008C33.8602 20.9008 33.8601 20.9008 33.8601 20.9008C33.8601 20.9008 33.8601 20.9008 33.8601 20.9008C33.8601 20.9008 33.8601 20.9008 33.8601 20.9008C33.8601 20.9008 33.8601 20.9008 33.8601 20.9008C33.8601 20.9008 33.8601 20.9008 33.8601 20.9008C33.8601 20.9008 33.8601 20.9008 33.8601 20.9008C33.8601 20.9008 33.8601 20.9008 33.8601 20.9008C33.8601 20.9008 33.86 20.9008 33.86 20.9008C33.86 20.9008 33.86 20.9008 33.86 20.9008C33.86 20.9008 33.86 20.9008 33.86 20.9008C33.86 20.9008 33.86 20.9008 33.86 20.9008C33.86 20.9008 33.86 20.9008 33.86 20.9008C33.86 20.9008 33.86 20.9008 33.86 20.9008C33.86 20.9008 33.86 20.9008 33.86 20.9008C33.86 20.9008 33.86 20.9008 33.8599 20.9008C33.8599 20.9008 33.8599 20.9008 33.8599 20.9008C33.8599 20.9008 33.8599 20.9008 33.8599 20.9008C33.8599 20.9008 33.8599 20.9008 33.8599 20.9008C33.8599 20.9008 33.8599 20.9008 33.8599 20.9008C33.8599 20.9008 33.8599 20.9008 33.8599 20.9008C33.8599 20.9008 33.8599 20.9008 33.8599 20.9008C33.8599 20.9008 33.8599 20.9008 33.8598 20.9008C33.8598 20.9008 33.8598 20.9008 33.8598 20.9008C33.8598 20.9008 33.8598 20.9008 33.8598 20.9008C33.8598 20.9008 33.8598 20.9008 33.8598 20.9008C33.8598 20.9008 33.8598 20.9008 33.8598 20.9008C33.8598 20.9008 33.8598 20.9008 33.8598 20.9008C33.8598 20.9008 33.8598 20.9008 33.8598 20.9008C33.8598 20.9008 33.8597 20.9008 33.8597 20.9008C33.8597 20.9008 33.8597 20.9008 33.8597 20.9008C33.8597 20.9008 33.8597 20.9008 33.8597 20.9008C33.8597 20.9008 33.8597 20.9008 33.8597 20.9008C33.8597 20.9008 33.8597 20.9008 33.8597 20.9008C33.8597 20.9008 33.8597 20.9008 33.8597 20.9008C33.8597 20.9008 33.8597 20.9008 33.8597 20.9008C33.8597 20.9008 33.8596 20.9008 33.8596 20.9008C33.8596 20.9008 33.8596 20.9008 33.8596 20.9008C33.8596 20.9008 33.8596 20.9008 33.8596 20.9008C33.8596 20.9008 33.8596 20.9008 33.8596 20.9008C33.8596 20.9008 33.8596 20.9008 33.8596 20.9008C33.8596 20.9008 33.8596 20.9008 33.8596 20.9008C33.8596 20.9008 33.8596 20.9008 33.8596 20.9008C33.8596 20.9008 33.8595 20.9008 33.8595 20.9008C33.8595 20.9008 33.8595 20.9008 33.8595 20.9008C33.8595 20.9008 33.8595 20.9008 33.8595 20.9008C33.8595 20.9008 33.8595 20.9008 33.8595 20.9008C33.8595 20.9008 33.8595 20.9008 33.8595 20.9008C33.8595 20.9008 33.8595 20.9008 33.8595 20.9008C33.8595 20.9008 33.8595 20.9008 33.8595 20.9008C33.8594 20.9008 33.8594 20.9008 33.8594 20.9008C33.8594 20.9008 33.8594 20.9008 33.8594 20.9008C33.8594 20.9008 33.8594 20.9008 33.8594 20.9008C33.8594 20.9008 33.8594 20.9008 33.8594 20.9008C33.8594 20.9008 33.8594 20.9008 33.8594 20.9008C33.8594 20.9008 33.8594 20.9008 33.8594 20.9008C33.8594 20.9008 33.8594 20.9008 33.8594 20.9008C33.8593 20.9008 33.8593 20.9008 33.8593 20.9008C33.8593 20.9008 33.8593 20.9008 33.8593 20.9008C33.8593 20.9008 33.8593 20.9008 33.8593 20.9008C33.8593 20.9008 33.8593 20.9008 33.8593 20.9008C33.8593 20.9008 33.8593 20.9008 33.8593 20.9008C33.8593 20.9008 33.8593 20.9008 33.8593 20.9008C33.8593 20.9008 33.8593 20.9008 33.8592 20.9008C33.8592 20.9008 33.8592 20.9008 33.8592 20.9008C33.8592 20.9008 33.8592 20.9008 33.8592 20.9008C33.8592 20.9008 33.8592 20.9008 33.8592 20.9008C33.8592 20.9008 33.8592 20.9008 33.8592 20.9008C33.8592 20.9008 33.8592 20.9008 33.8592 20.9008C33.8592 20.9008 33.8592 20.9008 33.8592 20.9008C33.8592 20.9008 33.8591 20.9008 33.8591 20.9008C33.8591 20.9008 33.8591 20.9008 33.8591 20.9008C33.8591 20.9008 33.8591 20.9008 33.8591 20.9008C33.8591 20.9008 33.8591 20.9008 33.8591 20.9008C33.8591 20.9008 33.8591 20.9008 33.8591 20.9008C33.8591 20.9008 33.8591 20.9008 33.8591 20.9008C33.8591 20.9008 33.8591 20.9008 33.8591 20.9008C33.859 20.9008 33.859 20.9008 33.859 20.9008C33.859 20.9008 33.859 20.9008 33.859 20.9008C33.859 20.9008 33.859 20.9008 33.859 20.9008C33.859 20.9008 33.859 20.9008 33.859 20.9008C33.859 20.9008 33.859 20.9008 33.859 20.9008C33.859 20.9008 33.859 20.9008 33.859 20.9008C33.859 20.9008 33.8589 20.9008 33.8589 20.9008C33.8589 20.9008 33.8589 20.9008 33.8589 20.9008C33.8589 20.9008 33.8589 20.9008 33.8589 20.9008C33.8589 20.9008 33.8589 20.9008 33.8589 20.9008C33.8589 20.9008 33.8589 20.9008 33.8589 20.9008C33.8589 20.9008 33.8589 20.9008 33.8589 20.9008C33.8589 20.9008 33.8589 20.9008 33.8589 20.9008C33.8588 20.9008 33.8588 20.9008 33.8588 20.9008C33.8588 20.9008 33.8588 20.9008 33.8588 20.9008C33.8588 20.9008 33.8588 20.9008 33.8588 20.9008C33.8588 20.9008 33.8588 20.9008 33.8588 20.9008C33.8588 20.9008 33.8588 20.9008 33.8588 20.9008C33.8588 20.9008 33.8588 20.9008 33.8588 20.9008C33.8588 20.9008 33.8588 20.9008 33.8587 20.9008C33.8587 20.9008 33.8587 20.9008 33.8587 20.9008C33.8587 20.9008 33.8587 20.9008 33.8587 20.9008C33.8587 20.9008 33.8587 20.9008 33.8587 20.9008C33.8587 20.9008 33.8587 20.9008 33.8587 20.9008C33.8587 20.9008 33.8587 20.9008 33.8587 20.9008C33.8587 20.9008 33.8587 20.9008 33.8587 20.9008C33.8586 20.9008 33.8586 20.9008 33.8586 20.9008C33.8586 20.9008 33.8586 20.9008 33.8586 20.9008C33.8586 20.9008 33.8586 20.9008 33.8586 20.9008C33.8586 20.9008 33.8586 20.9008 33.8586 20.9008C33.8586 20.9008 33.8586 20.9008 33.8586 20.9008C33.8586 20.9008 33.8586 20.9008 33.8586 20.9008C33.8586 20.9008 33.8585 20.9008 33.8585 20.9008C33.8585 20.9008 33.8585 20.9008 33.8585 20.9008C33.8585 20.9008 33.8585 20.9008 33.8585 20.9008C33.8585 20.9008 33.8585 20.9008 33.8585 20.9008C33.8585 20.9008 33.8585 20.9008 33.8585 20.9008C33.8585 20.9008 33.8585 20.9008 33.8585 20.9008C33.8585 20.9008 33.8585 20.9008 33.8584 20.9008C33.8584 20.9008 33.8584 20.9008 33.8584 20.9008C33.8584 20.9008 33.8584 20.9008 33.8584 20.9008C33.8584 20.9008 33.8584 20.9008 33.8584 20.9008C33.8584 20.9008 33.8584 20.9008 33.8584 20.9008C33.8584 20.9008 33.8584 20.9008 33.8584 20.9008C33.8584 20.9008 33.8584 20.9008 33.8584 20.9008C33.8583 20.9008 33.8583 20.9008 33.8583 20.9008C33.8583 20.9008 33.8583 20.9008 33.8583 20.9008C33.8583 20.9008 33.8583 20.9008 33.8583 20.9008C33.8583 20.9008 33.8583 20.9008 33.8583 20.9008C33.8583 20.9008 33.8583 20.9008 33.8583 20.9008C33.8583 20.9008 33.8583 20.9008 33.8583 20.9008C33.8583 20.9008 33.8582 20.9008 33.8582 20.9008C33.8582 20.9008 33.8582 20.9008 33.8582 20.9008C33.8582 20.9008 33.8582 20.9008 33.8582 20.9008C33.8582 20.9008 33.8582 20.9008 33.8582 20.9008C33.8582 20.9008 33.8582 20.9008 33.8582 20.9008C33.8582 20.9008 33.8582 20.9008 33.8582 20.9008C33.8582 20.9008 33.8582 20.9008 33.8581 20.9008C33.8581 20.9008 33.8581 20.9008 33.8581 20.9008C33.8581 20.9008 33.8581 20.9008 33.8581 20.9008C33.8581 20.9008 33.8581 20.9008 33.8581 20.9008C33.8581 20.9008 33.8581 20.9008 33.8581 20.9008C33.8581 20.9008 33.8581 20.9008 33.8581 20.9008C33.8581 20.9008 33.8581 20.9008 33.858 20.9008C33.858 20.9008 33.858 20.9008 33.858 20.9008C33.858 20.9008 33.858 20.9008 33.858 20.9008C33.858 20.9008 33.858 20.9008 33.858 20.9008C33.858 20.9008 33.858 20.9008 33.858 20.9008C33.858 20.9008 33.858 20.9008 33.858 20.9008C33.858 20.9008 33.858 20.9008 33.858 20.9008C33.8579 20.9008 33.8579 20.9008 33.8579 20.9008C33.8579 20.9008 33.8579 20.9008 33.8579 20.9008C33.8579 20.9008 33.8579 20.9008 33.8579 20.9008C33.8579 20.9008 33.8579 20.9008 33.8579 20.9008C33.8579 20.9008 33.8579 20.9008 33.8579 20.9008C33.8579 20.9008 33.8579 20.9008 33.8579 20.9008C33.8578 20.9008 33.8578 20.9008 33.8578 20.9008C33.8578 20.9008 33.8578 20.9008 33.8578 20.9008C33.8578 20.9008 33.8578 20.9008 33.8578 20.9008C33.8578 20.9008 33.8578 20.9008 33.8578 20.9008C33.8578 20.9008 33.8578 20.9008 33.8578 20.9008C33.8578 20.9008 33.8578 20.9008 33.8578 20.9008C33.8577 20.9008 33.8577 20.9008 33.8577 20.9008C33.8577 20.9008 33.8577 20.9008 33.8577 20.9008C33.8577 20.9008 33.8577 20.9008 33.8577 20.9008C33.8577 20.9008 33.8577 20.9008 33.8577 20.9008C33.8577 20.9008 33.8577 20.9008 33.8577 20.9008C33.8577 20.9008 33.8577 20.9008 33.8577 20.9008C33.8576 20.9008 33.8576 20.9008 33.8576 20.9008C33.8576 20.9008 33.8576 20.9008 33.8576 20.9008C33.8576 20.9008 33.8576 20.9008 33.8576 20.9008C33.8576 20.9008 33.8576 20.9008 33.8576 20.9008C33.8576 20.9008 33.8576 20.9008 33.8576 20.9008C33.8576 20.9008 33.8576 20.9008 33.8576 20.9008C33.8575 20.9008 33.8575 20.9008 33.8575 20.9008C33.8575 20.9008 33.8575 20.9008 33.8575 20.9008C33.8575 20.9008 33.8575 20.9008 33.8575 20.9008C33.8575 20.9008 33.8575 20.9008 33.8575 20.9008C33.8575 20.9008 33.8575 20.9008 33.8575 20.9008C33.8575 20.9008 33.8575 20.9008 33.8575 20.9008C33.8574 20.9008 33.8574 20.9008 33.8574 20.9008C33.8574 20.9008 33.8574 20.9008 33.8574 20.9008C33.8574 20.9008 33.8574 20.9008 33.8574 20.9008C33.8574 20.9008 33.8574 20.9008 33.8574 20.9008C33.8574 20.9008 33.8574 20.9008 33.8574 20.9008C33.8574 20.9008 33.8574 20.9008 33.8573 20.9008C33.8573 20.9008 33.8573 20.9008 33.8573 20.9008C33.8573 20.9008 33.8573 20.9008 33.8573 20.9008C33.8573 20.9008 33.8573 20.9008 33.8573 20.9008C33.8573 20.9008 33.8573 20.9008 33.8573 20.9008C33.8573 20.9008 33.8573 20.9008 33.8573 20.9008C33.8573 20.9008 33.8573 20.9008 33.8572 20.9008C33.8572 20.9008 33.8572 20.9008 33.8572 20.9008C33.8572 20.9008 33.8572 20.9008 33.8572 20.9008C33.8572 20.9008 33.8572 20.9008 33.8572 20.9008C33.8572 20.9008 33.8572 20.9008 33.8572 20.9008C33.8572 20.9008 33.8572 20.9008 33.8572 20.9008C33.8572 20.9008 33.8571 20.9008 33.8571 20.9008C33.8571 20.9008 33.8571 20.9008 33.8571 20.9008C33.8571 20.9008 33.8571 20.9008 33.8571 20.9008C33.8571 20.9008 33.8571 20.9008 33.8571 20.9008C33.8571 20.9008 33.8571 20.9008 33.8571 20.9008C33.8571 20.9008 33.8571 20.9008 33.8571 20.9008C33.857 20.9008 33.857 20.9008 33.857 20.9008C33.857 20.9008 33.857 20.9008 33.857 20.9008C33.857 20.9008 33.857 20.9008 33.857 20.9008C33.857 20.9008 33.857 20.9008 33.857 20.9008C33.857 20.9008 33.857 20.9008 33.857 20.9008C33.857 20.9008 33.857 20.9008 33.8569 20.9008C33.8569 20.9008 33.8569 20.9008 33.8569 20.9008C33.8569 20.9008 33.8569 20.9008 33.8569 20.9008C33.8569 20.9008 33.8569 20.9008 33.8569 20.9008C33.8569 20.9008 33.8569 20.9008 33.8569 20.9008C33.8569 20.9008 33.8569 20.9008 33.8569 20.9008C33.8569 20.9008 33.8569 20.9008 33.8568 20.9008C33.8568 20.9008 33.8568 20.9008 33.8568 20.9008C33.8568 20.9008 33.8568 20.9008 33.8568 20.9008C33.8568 20.9008 33.8568 20.9008 33.8568 20.9008C33.8568 20.9008 33.8568 20.9008 33.8568 20.9008C33.8568 20.9008 33.8568 20.9008 33.8568 20.9008C33.8567 20.9008 33.8567 20.9008 33.8567 20.9008C33.8567 20.9008 33.8567 20.9008 33.8567 20.9008C33.8567 20.9008 33.8567 20.9008 33.8567 20.9008C33.8567 20.9008 33.8567 20.9008 33.8567 20.9008C33.8567 20.9008 33.8567 20.9008 33.8567 20.9008C33.8567 20.9008 33.8567 20.9008 33.8566 20.9008C33.8566 20.9008 33.8566 20.9008 33.8566 20.9008C33.8566 20.9008 33.8566 20.9008 33.8566 20.9008C33.8566 20.9008 33.8566 20.9008 33.8566 20.9008C33.8566 20.9008 33.8566 20.9008 33.8566 20.9008C33.8566 20.9008 33.8566 20.9008 33.8566 20.9008C33.8566 20.9008 33.8565 20.9008 33.8565 20.9008C33.8565 20.9008 33.8565 20.9008 33.8565 20.9008C33.8565 20.9008 33.8565 20.9008 33.8565 20.9008C33.8565 20.9008 33.8565 20.9008 33.8565 20.9008C33.8565 20.9008 33.8565 20.9008 33.8565 20.9008C33.8565 20.9008 33.8565 20.9008 33.8564 20.9008C33.8564 20.9008 33.8564 20.9008 33.8564 20.9008C33.8564 20.9008 33.8564 20.9008 33.8564 20.9008C33.8564 20.9008 33.8564 20.9008 33.8564 20.9008C33.8564 20.9008 33.8564 20.9008 33.8564 20.9008C33.8564 20.9008 33.8564 20.9008 33.8564 20.9008C33.8564 20.9008 33.8563 20.9008 33.8563 20.9008V22.9008C33.8563 22.9008 33.8564 22.9008 33.8564 22.9008C33.8564 22.9008 33.8564 22.9008 33.8564 22.9008C33.8564 22.9008 33.8564 22.9008 33.8564 22.9008C33.8564 22.9008 33.8564 22.9008 33.8564 22.9008C33.8564 22.9008 33.8564 22.9008 33.8564 22.9008C33.8564 22.9008 33.8564 22.9008 33.8564 22.9008C33.8565 22.9008 33.8565 22.9008 33.8565 22.9008C33.8565 22.9008 33.8565 22.9008 33.8565 22.9008C33.8565 22.9008 33.8565 22.9008 33.8565 22.9008C33.8565 22.9008 33.8565 22.9008 33.8565 22.9008C33.8565 22.9008 33.8565 22.9008 33.8565 22.9008C33.8565 22.9008 33.8566 22.9008 33.8566 22.9008C33.8566 22.9008 33.8566 22.9008 33.8566 22.9008C33.8566 22.9008 33.8566 22.9008 33.8566 22.9008C33.8566 22.9008 33.8566 22.9008 33.8566 22.9008C33.8566 22.9008 33.8566 22.9008 33.8566 22.9008C33.8566 22.9008 33.8566 22.9008 33.8566 22.9008C33.8567 22.9008 33.8567 22.9008 33.8567 22.9008C33.8567 22.9008 33.8567 22.9008 33.8567 22.9008C33.8567 22.9008 33.8567 22.9008 33.8567 22.9008C33.8567 22.9008 33.8567 22.9008 33.8567 22.9008C33.8567 22.9008 33.8567 22.9008 33.8567 22.9008C33.8567 22.9008 33.8567 22.9008 33.8568 22.9008C33.8568 22.9008 33.8568 22.9008 33.8568 22.9008C33.8568 22.9008 33.8568 22.9008 33.8568 22.9008C33.8568 22.9008 33.8568 22.9008 33.8568 22.9008C33.8568 22.9008 33.8568 22.9008 33.8568 22.9008C33.8568 22.9008 33.8568 22.9008 33.8568 22.9008C33.8569 22.9008 33.8569 22.9008 33.8569 22.9008C33.8569 22.9008 33.8569 22.9008 33.8569 22.9008C33.8569 22.9008 33.8569 22.9008 33.8569 22.9008C33.8569 22.9008 33.8569 22.9008 33.8569 22.9008C33.8569 22.9008 33.8569 22.9008 33.8569 22.9008C33.8569 22.9008 33.8569 22.9008 33.8569 22.9008C33.857 22.9008 33.857 22.9008 33.857 22.9008C33.857 22.9008 33.857 22.9008 33.857 22.9008C33.857 22.9008 33.857 22.9008 33.857 22.9008C33.857 22.9008 33.857 22.9008 33.857 22.9008C33.857 22.9008 33.857 22.9008 33.857 22.9008C33.857 22.9008 33.857 22.9008 33.8571 22.9008C33.8571 22.9008 33.8571 22.9008 33.8571 22.9008C33.8571 22.9008 33.8571 22.9008 33.8571 22.9008C33.8571 22.9008 33.8571 22.9008 33.8571 22.9008C33.8571 22.9008 33.8571 22.9008 33.8571 22.9008C33.8571 22.9008 33.8571 22.9008 33.8571 22.9008C33.8571 22.9008 33.8572 22.9008 33.8572 22.9008C33.8572 22.9008 33.8572 22.9008 33.8572 22.9008C33.8572 22.9008 33.8572 22.9008 33.8572 22.9008C33.8572 22.9008 33.8572 22.9008 33.8572 22.9008C33.8572 22.9008 33.8572 22.9008 33.8572 22.9008C33.8572 22.9008 33.8572 22.9008 33.8572 22.9008C33.8573 22.9008 33.8573 22.9008 33.8573 22.9008C33.8573 22.9008 33.8573 22.9008 33.8573 22.9008C33.8573 22.9008 33.8573 22.9008 33.8573 22.9008C33.8573 22.9008 33.8573 22.9008 33.8573 22.9008C33.8573 22.9008 33.8573 22.9008 33.8573 22.9008C33.8573 22.9008 33.8573 22.9008 33.8573 22.9008C33.8574 22.9008 33.8574 22.9008 33.8574 22.9008C33.8574 22.9008 33.8574 22.9008 33.8574 22.9008C33.8574 22.9008 33.8574 22.9008 33.8574 22.9008C33.8574 22.9008 33.8574 22.9008 33.8574 22.9008C33.8574 22.9008 33.8574 22.9008 33.8574 22.9008C33.8574 22.9008 33.8574 22.9008 33.8575 22.9008C33.8575 22.9008 33.8575 22.9008 33.8575 22.9008C33.8575 22.9008 33.8575 22.9008 33.8575 22.9008C33.8575 22.9008 33.8575 22.9008 33.8575 22.9008C33.8575 22.9008 33.8575 22.9008 33.8575 22.9008C33.8575 22.9008 33.8575 22.9008 33.8575 22.9008C33.8575 22.9008 33.8575 22.9008 33.8576 22.9008C33.8576 22.9008 33.8576 22.9008 33.8576 22.9008C33.8576 22.9008 33.8576 22.9008 33.8576 22.9008C33.8576 22.9008 33.8576 22.9008 33.8576 22.9008C33.8576 22.9008 33.8576 22.9008 33.8576 22.9008C33.8576 22.9008 33.8576 22.9008 33.8576 22.9008C33.8576 22.9008 33.8576 22.9008 33.8577 22.9008C33.8577 22.9008 33.8577 22.9008 33.8577 22.9008C33.8577 22.9008 33.8577 22.9008 33.8577 22.9008C33.8577 22.9008 33.8577 22.9008 33.8577 22.9008C33.8577 22.9008 33.8577 22.9008 33.8577 22.9008C33.8577 22.9008 33.8577 22.9008 33.8577 22.9008C33.8577 22.9008 33.8577 22.9008 33.8578 22.9008C33.8578 22.9008 33.8578 22.9008 33.8578 22.9008C33.8578 22.9008 33.8578 22.9008 33.8578 22.9008C33.8578 22.9008 33.8578 22.9008 33.8578 22.9008C33.8578 22.9008 33.8578 22.9008 33.8578 22.9008C33.8578 22.9008 33.8578 22.9008 33.8578 22.9008C33.8578 22.9008 33.8578 22.9008 33.8579 22.9008C33.8579 22.9008 33.8579 22.9008 33.8579 22.9008C33.8579 22.9008 33.8579 22.9008 33.8579 22.9008C33.8579 22.9008 33.8579 22.9008 33.8579 22.9008C33.8579 22.9008 33.8579 22.9008 33.8579 22.9008C33.8579 22.9008 33.8579 22.9008 33.8579 22.9008C33.8579 22.9008 33.8579 22.9008 33.858 22.9008C33.858 22.9008 33.858 22.9008 33.858 22.9008C33.858 22.9008 33.858 22.9008 33.858 22.9008C33.858 22.9008 33.858 22.9008 33.858 22.9008C33.858 22.9008 33.858 22.9008 33.858 22.9008C33.858 22.9008 33.858 22.9008 33.858 22.9008C33.858 22.9008 33.858 22.9008 33.858 22.9008C33.8581 22.9008 33.8581 22.9008 33.8581 22.9008C33.8581 22.9008 33.8581 22.9008 33.8581 22.9008C33.8581 22.9008 33.8581 22.9008 33.8581 22.9008C33.8581 22.9008 33.8581 22.9008 33.8581 22.9008C33.8581 22.9008 33.8581 22.9008 33.8581 22.9008C33.8581 22.9008 33.8581 22.9008 33.8581 22.9008C33.8582 22.9008 33.8582 22.9008 33.8582 22.9008C33.8582 22.9008 33.8582 22.9008 33.8582 22.9008C33.8582 22.9008 33.8582 22.9008 33.8582 22.9008C33.8582 22.9008 33.8582 22.9008 33.8582 22.9008C33.8582 22.9008 33.8582 22.9008 33.8582 22.9008C33.8582 22.9008 33.8582 22.9008 33.8582 22.9008C33.8582 22.9008 33.8583 22.9008 33.8583 22.9008C33.8583 22.9008 33.8583 22.9008 33.8583 22.9008C33.8583 22.9008 33.8583 22.9008 33.8583 22.9008C33.8583 22.9008 33.8583 22.9008 33.8583 22.9008C33.8583 22.9008 33.8583 22.9008 33.8583 22.9008C33.8583 22.9008 33.8583 22.9008 33.8583 22.9008C33.8583 22.9008 33.8583 22.9008 33.8584 22.9008C33.8584 22.9008 33.8584 22.9008 33.8584 22.9008C33.8584 22.9008 33.8584 22.9008 33.8584 22.9008C33.8584 22.9008 33.8584 22.9008 33.8584 22.9008C33.8584 22.9008 33.8584 22.9008 33.8584 22.9008C33.8584 22.9008 33.8584 22.9008 33.8584 22.9008C33.8584 22.9008 33.8584 22.9008 33.8584 22.9008C33.8585 22.9008 33.8585 22.9008 33.8585 22.9008C33.8585 22.9008 33.8585 22.9008 33.8585 22.9008C33.8585 22.9008 33.8585 22.9008 33.8585 22.9008C33.8585 22.9008 33.8585 22.9008 33.8585 22.9008C33.8585 22.9008 33.8585 22.9008 33.8585 22.9008C33.8585 22.9008 33.8585 22.9008 33.8585 22.9008C33.8585 22.9008 33.8586 22.9008 33.8586 22.9008C33.8586 22.9008 33.8586 22.9008 33.8586 22.9008C33.8586 22.9008 33.8586 22.9008 33.8586 22.9008C33.8586 22.9008 33.8586 22.9008 33.8586 22.9008C33.8586 22.9008 33.8586 22.9008 33.8586 22.9008C33.8586 22.9008 33.8586 22.9008 33.8586 22.9008C33.8586 22.9008 33.8586 22.9008 33.8587 22.9008C33.8587 22.9008 33.8587 22.9008 33.8587 22.9008C33.8587 22.9008 33.8587 22.9008 33.8587 22.9008C33.8587 22.9008 33.8587 22.9008 33.8587 22.9008C33.8587 22.9008 33.8587 22.9008 33.8587 22.9008C33.8587 22.9008 33.8587 22.9008 33.8587 22.9008C33.8587 22.9008 33.8587 22.9008 33.8587 22.9008C33.8588 22.9008 33.8588 22.9008 33.8588 22.9008C33.8588 22.9008 33.8588 22.9008 33.8588 22.9008C33.8588 22.9008 33.8588 22.9008 33.8588 22.9008C33.8588 22.9008 33.8588 22.9008 33.8588 22.9008C33.8588 22.9008 33.8588 22.9008 33.8588 22.9008C33.8588 22.9008 33.8588 22.9008 33.8588 22.9008C33.8588 22.9008 33.8588 22.9008 33.8589 22.9008C33.8589 22.9008 33.8589 22.9008 33.8589 22.9008C33.8589 22.9008 33.8589 22.9008 33.8589 22.9008C33.8589 22.9008 33.8589 22.9008 33.8589 22.9008C33.8589 22.9008 33.8589 22.9008 33.8589 22.9008C33.8589 22.9008 33.8589 22.9008 33.8589 22.9008C33.8589 22.9008 33.8589 22.9008 33.8589 22.9008C33.8589 22.9008 33.859 22.9008 33.859 22.9008C33.859 22.9008 33.859 22.9008 33.859 22.9008C33.859 22.9008 33.859 22.9008 33.859 22.9008C33.859 22.9008 33.859 22.9008 33.859 22.9008C33.859 22.9008 33.859 22.9008 33.859 22.9008C33.859 22.9008 33.859 22.9008 33.859 22.9008C33.859 22.9008 33.859 22.9008 33.8591 22.9008C33.8591 22.9008 33.8591 22.9008 33.8591 22.9008C33.8591 22.9008 33.8591 22.9008 33.8591 22.9008C33.8591 22.9008 33.8591 22.9008 33.8591 22.9008C33.8591 22.9008 33.8591 22.9008 33.8591 22.9008C33.8591 22.9008 33.8591 22.9008 33.8591 22.9008C33.8591 22.9008 33.8591 22.9008 33.8591 22.9008C33.8591 22.9008 33.8592 22.9008 33.8592 22.9008C33.8592 22.9008 33.8592 22.9008 33.8592 22.9008C33.8592 22.9008 33.8592 22.9008 33.8592 22.9008C33.8592 22.9008 33.8592 22.9008 33.8592 22.9008C33.8592 22.9008 33.8592 22.9008 33.8592 22.9008C33.8592 22.9008 33.8592 22.9008 33.8592 22.9008C33.8592 22.9008 33.8592 22.9008 33.8592 22.9008C33.8593 22.9008 33.8593 22.9008 33.8593 22.9008C33.8593 22.9008 33.8593 22.9008 33.8593 22.9008C33.8593 22.9008 33.8593 22.9008 33.8593 22.9008C33.8593 22.9008 33.8593 22.9008 33.8593 22.9008C33.8593 22.9008 33.8593 22.9008 33.8593 22.9008C33.8593 22.9008 33.8593 22.9008 33.8593 22.9008C33.8593 22.9008 33.8593 22.9008 33.8594 22.9008C33.8594 22.9008 33.8594 22.9008 33.8594 22.9008C33.8594 22.9008 33.8594 22.9008 33.8594 22.9008C33.8594 22.9008 33.8594 22.9008 33.8594 22.9008C33.8594 22.9008 33.8594 22.9008 33.8594 22.9008C33.8594 22.9008 33.8594 22.9008 33.8594 22.9008C33.8594 22.9008 33.8594 22.9008 33.8594 22.9008C33.8594 22.9008 33.8594 22.9008 33.8595 22.9008C33.8595 22.9008 33.8595 22.9008 33.8595 22.9008C33.8595 22.9008 33.8595 22.9008 33.8595 22.9008C33.8595 22.9008 33.8595 22.9008 33.8595 22.9008C33.8595 22.9008 33.8595 22.9008 33.8595 22.9008C33.8595 22.9008 33.8595 22.9008 33.8595 22.9008C33.8595 22.9008 33.8595 22.9008 33.8595 22.9008C33.8595 22.9008 33.8596 22.9008 33.8596 22.9008C33.8596 22.9008 33.8596 22.9008 33.8596 22.9008C33.8596 22.9008 33.8596 22.9008 33.8596 22.9008C33.8596 22.9008 33.8596 22.9008 33.8596 22.9008C33.8596 22.9008 33.8596 22.9008 33.8596 22.9008C33.8596 22.9008 33.8596 22.9008 33.8596 22.9008C33.8596 22.9008 33.8596 22.9008 33.8596 22.9008C33.8596 22.9008 33.8597 22.9008 33.8597 22.9008C33.8597 22.9008 33.8597 22.9008 33.8597 22.9008C33.8597 22.9008 33.8597 22.9008 33.8597 22.9008C33.8597 22.9008 33.8597 22.9008 33.8597 22.9008C33.8597 22.9008 33.8597 22.9008 33.8597 22.9008C33.8597 22.9008 33.8597 22.9008 33.8597 22.9008C33.8597 22.9008 33.8597 22.9008 33.8597 22.9008C33.8597 22.9008 33.8598 22.9008 33.8598 22.9008C33.8598 22.9008 33.8598 22.9008 33.8598 22.9008C33.8598 22.9008 33.8598 22.9008 33.8598 22.9008C33.8598 22.9008 33.8598 22.9008 33.8598 22.9008C33.8598 22.9008 33.8598 22.9008 33.8598 22.9008C33.8598 22.9008 33.8598 22.9008 33.8598 22.9008C33.8598 22.9008 33.8598 22.9008 33.8598 22.9008C33.8599 22.9008 33.8599 22.9008 33.8599 22.9008C33.8599 22.9008 33.8599 22.9008 33.8599 22.9008C33.8599 22.9008 33.8599 22.9008 33.8599 22.9008C33.8599 22.9008 33.8599 22.9008 33.8599 22.9008C33.8599 22.9008 33.8599 22.9008 33.8599 22.9008C33.8599 22.9008 33.8599 22.9008 33.8599 22.9008C33.8599 22.9008 33.8599 22.9008 33.8599 22.9008C33.86 22.9008 33.86 22.9008 33.86 22.9008C33.86 22.9008 33.86 22.9008 33.86 22.9008C33.86 22.9008 33.86 22.9008 33.86 22.9008C33.86 22.9008 33.86 22.9008 33.86 22.9008C33.86 22.9008 33.86 22.9008 33.86 22.9008C33.86 22.9008 33.86 22.9008 33.86 22.9008C33.86 22.9008 33.86 22.9008 33.86 22.9008C33.86 22.9008 33.8601 22.9008 33.8601 22.9008C33.8601 22.9008 33.8601 22.9008 33.8601 22.9008C33.8601 22.9008 33.8601 22.9008 33.8601 22.9008C33.8601 22.9008 33.8601 22.9008 33.8601 22.9008C33.8601 22.9008 33.8601 22.9008 33.8601 22.9008C33.8601 22.9008 33.8601 22.9008 33.8601 22.9008C33.8601 22.9008 33.8601 22.9008 33.8601 22.9008C33.8601 22.9008 33.8602 22.9008 33.8602 22.9008C33.8602 22.9008 33.8602 22.9008 33.8602 22.9008C33.8602 22.9008 33.8602 22.9008 33.8602 22.9008C33.8602 22.9008 33.8602 22.9008 33.8602 22.9008C33.8602 22.9008 33.8602 22.9008 33.8602 22.9008C33.8602 22.9008 33.8602 22.9008 33.8602 22.9008C33.8602 22.9008 33.8602 22.9008 33.8602 22.9008C33.8602 22.9008 33.8603 22.9008 33.8603 22.9008C33.8603 22.9008 33.8603 22.9008 33.8603 22.9008C33.8603 22.9008 33.8603 22.9008 33.8603 22.9008C33.8603 22.9008 33.8603 22.9008 33.8603 22.9008C33.8603 22.9008 33.8603 22.9008 33.8603 22.9008C33.8603 22.9008 33.8603 22.9008 33.8603 22.9008C33.8603 22.9008 33.8603 22.9008 33.8603 22.9008C33.8603 22.9008 33.8603 22.9008 33.8604 22.9008C33.8604 22.9008 33.8604 22.9008 33.8604 22.9008C33.8604 22.9008 33.8604 22.9008 33.8604 22.9008C33.8604 22.9008 33.8604 22.9008 33.8604 22.9008C33.8604 22.9008 33.8604 22.9008 33.8604 22.9008C33.8604 22.9008 33.8604 22.9008 33.8604 22.9008C33.8604 22.9008 33.8604 22.9008 33.8604 22.9008C33.8604 22.9008 33.8604 22.9008 33.8604 22.9008C33.8605 22.9008 33.8605 22.9008 33.8605 22.9008C33.8605 22.9008 33.8605 22.9008 33.8605 22.9008C33.8605 22.9008 33.8605 22.9008 33.8605 22.9008C33.8605 22.9008 33.8605 22.9008 33.8605 22.9008C33.8605 22.9008 33.8605 22.9008 33.8605 22.9008C33.8605 22.9008 33.8605 22.9008 33.8605 22.9008C33.8605 22.9008 33.8605 22.9008 33.8605 22.9008C33.8605 22.9008 33.8606 22.9008 33.8606 22.9008C33.8606 22.9008 33.8606 22.9008 33.8606 22.9008C33.8606 22.9008 33.8606 22.9008 33.8606 22.9008C33.8606 22.9008 33.8606 22.9008 33.8606 22.9008C33.8606 22.9008 33.8606 22.9008 33.8606 22.9008C33.8606 22.9008 33.8606 22.9008 33.8606 22.9008C33.8606 22.9008 33.8606 22.9008 33.8606 22.9008C33.8606 22.9008 33.8607 22.9008 33.8607 22.9008C33.8607 22.9008 33.8607 22.9008 33.8607 22.9008C33.8607 22.9008 33.8607 22.9008 33.8607 22.9008C33.8607 22.9008 33.8607 22.9008 33.8607 22.9008C33.8607 22.9008 33.8607 22.9008 33.8607 22.9008C33.8607 22.9008 33.8607 22.9008 33.8607 22.9008C33.8607 22.9008 33.8607 22.9008 33.8607 22.9008C33.8607 22.9008 33.8607 22.9008 33.8607 22.9008C33.8608 22.9008 33.8608 22.9008 33.8608 22.9008C33.8608 22.9008 33.8608 22.9008 33.8608 22.9008C33.8608 22.9008 33.8608 22.9008 33.8608 22.9008C33.8608 22.9008 33.8608 22.9008 33.8608 22.9008C33.8608 22.9008 33.8608 22.9008 33.8608 22.9008C33.8608 22.9008 33.8608 22.9008 33.8608 22.9008C33.8608 22.9008 33.8608 22.9008 33.8608 22.9008C33.8608 22.9008 33.8609 22.9008 33.8609 22.9008C33.8609 22.9008 33.8609 22.9008 33.8609 22.9008C33.8609 22.9008 33.8609 22.9008 33.8609 22.9008C33.8609 22.9008 33.8609 22.9008 33.8609 22.9008C33.8609 22.9008 33.8609 22.9008 33.8609 22.9008C33.8609 22.9008 33.8609 22.9008 33.8609 22.9008C33.8609 22.9008 33.8609 22.9008 33.8609 22.9008C33.8609 22.9008 33.8609 22.9008 33.861 22.9008C33.861 22.9008 33.861 22.9008 33.861 22.9008C33.861 22.9008 33.861 22.9008 33.861 22.9008C33.861 22.9008 33.861 22.9008 33.861 22.9008C33.861 22.9008 33.861 22.9008 33.861 22.9008C33.861 22.9008 33.861 22.9008 33.861 22.9008C33.861 22.9008 33.861 22.9008 33.861 22.9008C33.861 22.9008 33.861 22.9008 33.861 22.9008C33.861 22.9008 33.8611 22.9008 33.8611 22.9008C33.8611 22.9008 33.8611 22.9008 33.8611 22.9008C33.8611 22.9008 33.8611 22.9008 33.8611 22.9008C33.8611 22.9008 33.8611 22.9008 33.8611 22.9008C33.8611 22.9008 33.8611 22.9008 33.8611 22.9008C33.8611 22.9008 33.8611 22.9008 33.8611 22.9008C33.8611 22.9008 33.8611 22.9008 33.8611 22.9008C33.8611 22.9008 33.8611 22.9008 33.8612 22.9008C33.8612 22.9008 33.8612 22.9008 33.8612 22.9008C33.8612 22.9008 33.8612 22.9008 33.8612 22.9008C33.8612 22.9008 33.8612 22.9008 33.8612 22.9008C33.8612 22.9008 33.8612 22.9008 33.8612 22.9008C33.8612 22.9008 33.8612 22.9008 33.8612 22.9008C33.8612 22.9008 33.8612 22.9008 33.8612 22.9008C33.8612 22.9008 33.8612 22.9008 33.8612 22.9008C33.8612 22.9008 33.8613 22.9008 33.8613 22.9008C33.8613 22.9008 33.8613 22.9008 33.8613 22.9008C33.8613 22.9008 33.8613 22.9008 33.8613 22.9008C33.8613 22.9008 33.8613 22.9008 33.8613 22.9008C33.8613 22.9008 33.8613 22.9008 33.8613 22.9008C33.8613 22.9008 33.8613 22.9008 33.8613 22.9008C33.8613 22.9008 33.8613 22.9008 33.8613 22.9008C33.8613 22.9008 33.8613 22.9008 33.8613 22.9008C33.8614 22.9008 33.8614 22.9008 33.8614 22.9008C33.8614 22.9008 33.8614 22.9008 33.8614 22.9008C33.8614 22.9008 33.8614 22.9008 33.8614 22.9008C33.8614 22.9008 33.8614 22.9008 33.8614 22.9008C33.8614 22.9008 33.8614 22.9008 33.8614 22.9008C33.8614 22.9008 33.8614 22.9008 33.8614 22.9008C33.8614 22.9008 33.8614 22.9008 33.8614 22.9008C33.8614 22.9008 33.8614 22.9008 33.8615 22.9008C33.8615 22.9008 33.8615 22.9008 33.8615 22.9008C33.8615 22.9008 33.8615 22.9008 33.8615 22.9008C33.8615 22.9008 33.8615 22.9008 33.8615 22.9008C33.8615 22.9008 33.8615 22.9008 33.8615 22.9008C33.8615 22.9008 33.8615 22.9008 33.8615 22.9008C33.8615 22.9008 33.8615 22.9008 33.8615 22.9008C33.8615 22.9008 33.8615 22.9008 33.8615 22.9008C33.8615 22.9008 33.8616 22.9008 33.8616 22.9008C33.8616 22.9008 33.8616 22.9008 33.8616 22.9008C33.8616 22.9008 33.8616 22.9008 33.8616 22.9008C33.8616 22.9008 33.8616 22.9008 33.8616 22.9008C33.8616 22.9008 33.8616 22.9008 33.8616 22.9008C33.8616 22.9008 33.8616 22.9008 33.8616 22.9008C33.8616 22.9008 33.8616 22.9008 33.8616 22.9008C33.8616 22.9008 33.8616 22.9008 33.8616 22.9008C33.8617 22.9008 33.8617 22.9008 33.8617 22.9008C33.8617 22.9008 33.8617 22.9008 33.8617 22.9008C33.8617 22.9008 33.8617 22.9008 33.8617 22.9008C33.8617 22.9008 33.8617 22.9008 33.8617 22.9008C33.8617 22.9008 33.8617 22.9008 33.8617 22.9008C33.8617 22.9008 33.8617 22.9008 33.8617 22.9008C33.8617 22.9008 33.8617 22.9008 33.8617 22.9008C33.8617 22.9008 33.8617 22.9008 33.8617 22.9008C33.8618 22.9008 33.8618 22.9008 33.8618 22.9008C33.8618 22.9008 33.8618 22.9008 33.8618 22.9008C33.8618 22.9008 33.8618 22.9008 33.8618 22.9008C33.8618 22.9008 33.8618 22.9008 33.8618 22.9008C33.8618 22.9008 33.8618 22.9008 33.8618 22.9008C33.8618 22.9008 33.8618 22.9008 33.8618 22.9008C33.8618 22.9008 33.8618 22.9008 33.8618 22.9008C33.8618 22.9008 33.8618 22.9008 33.8619 22.9008C33.8619 22.9008 33.8619 22.9008 33.8619 22.9008C33.8619 22.9008 33.8619 22.9008 33.8619 22.9008C33.8619 22.9008 33.8619 22.9008 33.8619 22.9008C33.8619 22.9008 33.8619 22.9008 33.8619 22.9008C33.8619 22.9008 33.8619 22.9008 33.8619 22.9008C33.8619 22.9008 33.8619 22.9008 33.8619 22.9008C33.8619 22.9008 33.8619 22.9008 33.8619 22.9008C33.8619 22.9008 33.8619 22.9008 33.862 22.9008C33.862 22.9008 33.862 22.9008 33.862 22.9008C33.862 22.9008 33.862 22.9008 33.862 22.9008C33.862 22.9008 33.862 22.9008 33.862 22.9008C33.862 22.9008 33.862 22.9008 33.862 22.9008C33.862 22.9008 33.862 22.9008 33.862 22.9008C33.862 22.9008 33.862 22.9008 33.862 22.9008C33.862 22.9008 33.862 22.9008 33.862 22.9008C33.862 22.9008 33.8621 22.9008 33.8621 22.9008C33.8621 22.9008 33.8621 22.9008 33.8621 22.9008C33.8621 22.9008 33.8621 22.9008 33.8621 22.9008C33.8621 22.9008 33.8621 22.9008 33.8621 22.9008C33.8621 22.9008 33.8621 22.9008 33.8621 22.9008C33.8621 22.9008 33.8621 22.9008 33.8621 22.9008C33.8621 22.9008 33.8621 22.9008 33.8621 22.9008C33.8621 22.9008 33.8621 22.9008 33.8621 22.9008C33.8621 22.9008 33.8622 22.9008 33.8622 22.9008C33.8622 22.9008 33.8622 22.9008 33.8622 22.9008C33.8622 22.9008 33.8622 22.9008 33.8622 22.9008C33.8622 22.9008 33.8622 22.9008 33.8622 22.9008C33.8622 22.9008 33.8622 22.9008 33.8622 22.9008C33.8622 22.9008 33.8622 22.9008 33.8622 22.9008C33.8622 22.9008 33.8622 22.9008 33.8622 22.9008C33.8622 22.9008 33.8622 22.9008 33.8622 22.9008C33.8622 22.9008 33.8623 22.9008 33.8623 22.9008C33.8623 22.9008 33.8623 22.9008 33.8623 22.9008C33.8623 22.9008 33.8623 22.9008 33.8623 22.9008C33.8623 22.9008 33.8623 22.9008 33.8623 22.9008C33.8623 22.9008 33.8623 22.9008 33.8623 22.9008C33.8623 22.9008 33.8623 22.9008 33.8623 22.9008C33.8623 22.9008 33.8623 22.9008 33.8623 22.9008C33.8623 22.9008 33.8623 22.9008 33.8623 22.9008C33.8623 22.9008 33.8624 22.9008 33.8624 22.9008C33.8624 22.9008 33.8624 22.9008 33.8624 22.9008C33.8624 22.9008 33.8624 22.9008 33.8624 22.9008C33.8624 22.9008 33.8624 22.9008 33.8624 22.9008C33.8624 22.9008 33.8624 22.9008 33.8624 22.9008C33.8624 22.9008 33.8624 22.9008 33.8624 22.9008C33.8624 22.9008 33.8624 22.9008 33.8624 22.9008C33.8624 22.9008 33.8624 22.9008 33.8624 22.9008C33.8624 22.9008 33.8625 22.9008 33.8625 22.9008C33.8625 22.9008 33.8625 22.9008 33.8625 22.9008C33.8625 22.9008 33.8625 22.9008 33.8625 22.9008C33.8625 22.9008 33.8625 22.9008 33.8625 22.9008C33.8625 22.9008 33.8625 22.9008 33.8625 22.9008C33.8625 22.9008 33.8625 22.9008 33.8625 22.9008C33.8625 22.9008 33.8625 22.9008 33.8625 22.9008C33.8625 22.9008 33.8625 22.9008 33.8625 22.9008C33.8625 22.9008 33.8626 22.9008 33.8626 22.9008C33.8626 22.9008 33.8626 22.9008 33.8626 22.9008C33.8626 22.9008 33.8626 22.9008 33.8626 22.9008C33.8626 22.9008 33.8626 22.9008 33.8626 22.9008C33.8626 22.9008 33.8626 22.9008 33.8626 22.9008C33.8626 22.9008 33.8626 22.9008 33.8626 22.9008C33.8626 22.9008 33.8626 22.9008 33.8626 22.9008C33.8626 22.9008 33.8626 22.9008 33.8626 22.9008C33.8626 22.9008 33.8627 22.9008 33.8627 22.9008C33.8627 22.9008 33.8627 22.9008 33.8627 22.9008C33.8627 22.9008 33.8627 22.9008 33.8627 22.9008C33.8627 22.9008 33.8627 22.9008 33.8627 22.9008C33.8627 22.9008 33.8627 22.9008 33.8627 22.9008C33.8627 22.9008 33.8627 22.9008 33.8627 22.9008C33.8627 22.9008 33.8627 22.9008 33.8627 22.9008C33.8627 22.9008 33.8627 22.9008 33.8627 22.9008C33.8627 22.9008 33.8628 22.9008 33.8628 22.9008C33.8628 22.9008 33.8628 22.9008 33.8628 22.9008C33.8628 22.9008 33.8628 22.9008 33.8628 22.9008C33.8628 22.9008 33.8628 22.9008 33.8628 22.9008C33.8628 22.9008 33.8628 22.9008 33.8628 22.9008C33.8628 22.9008 33.8628 22.9008 33.8628 22.9008C33.8628 22.9008 33.8628 22.9008 33.8628 22.9008C33.8628 22.9008 33.8628 22.9008 33.8628 22.9008C33.8628 22.9008 33.8629 22.9008 33.8629 22.9008C33.8629 22.9008 33.8629 22.9008 33.8629 22.9008C33.8629 22.9008 33.8629 22.9008 33.8629 22.9008C33.8629 22.9008 33.8629 22.9008 33.8629 22.9008C33.8629 22.9008 33.8629 22.9008 33.8629 22.9008C33.8629 22.9008 33.8629 22.9008 33.8629 22.9008C33.8629 22.9008 33.8629 22.9008 33.8629 22.9008C33.8629 22.9008 33.8629 22.9008 33.8629 22.9008C33.8629 22.9008 33.863 22.9008 33.863 22.9008C33.863 22.9008 33.863 22.9008 33.863 22.9008C33.863 22.9008 33.863 22.9008 33.863 22.9008C33.863 22.9008 33.863 22.9008 33.863 22.9008C33.863 22.9008 33.863 22.9008 33.863 22.9008C33.863 22.9008 33.863 22.9008 33.863 22.9008C33.863 22.9008 33.863 22.9008 33.863 22.9008C33.863 22.9008 33.863 22.9008 33.863 22.9008C33.863 22.9008 33.863 22.9008 33.8631 22.9008C33.8631 22.9008 33.8631 22.9008 33.8631 22.9008C33.8631 22.9008 33.8631 22.9008 33.8631 22.9008C33.8631 22.9008 33.8631 22.9008 33.8631 22.9008C33.8631 22.9008 33.8631 22.9008 33.8631 22.9008C33.8631 22.9008 33.8631 22.9008 33.8631 22.9008C33.8631 22.9008 33.8631 22.9008 33.8631 22.9008C33.8631 22.9008 33.8631 22.9008 33.8631 22.9008C33.8631 22.9008 33.8631 22.9008 33.8632 22.9008C33.8632 22.9008 33.8632 22.9008 33.8632 22.9008C33.8632 22.9008 33.8632 22.9008 33.8632 22.9008C33.8632 22.9008 33.8632 22.9008 33.8632 22.9008C33.8632 22.9008 33.8632 22.9008 33.8632 22.9008C33.8632 22.9008 33.8632 22.9008 33.8632 22.9008C33.8632 22.9008 33.8632 22.9008 33.8632 22.9008C33.8632 22.9008 33.8632 22.9008 33.8632 22.9008C33.8632 22.9008 33.8632 22.9008 33.8632 22.9008C33.8633 22.9008 33.8633 22.9008 33.8633 22.9008C33.8633 22.9008 33.8633 22.9008 33.8633 22.9008C33.8633 22.9008 33.8633 22.9008 33.8633 22.9008C33.8633 22.9008 33.8633 22.9008 33.8633 22.9008C33.8633 22.9008 33.8633 22.9008 33.8633 22.9008C33.8633 22.9008 33.8633 22.9008 33.8633 22.9008C33.8633 22.9008 33.8633 22.9008 33.8633 22.9008C33.8633 22.9008 33.8633 22.9008 33.8633 22.9008C33.8634 22.9008 33.8634 22.9008 33.8634 22.9008C33.8634 22.9008 33.8634 22.9008 33.8634 22.9008C33.8634 22.9008 33.8634 22.9008 33.8634 22.9008C33.8634 22.9008 33.8634 22.9008 33.8634 22.9008C33.8634 22.9008 33.8634 22.9008 33.8634 22.9008C33.8634 22.9008 33.8634 22.9008 33.8634 22.9008C33.8634 22.9008 33.8634 22.9008 33.8634 22.9008C33.8634 22.9008 33.8634 22.9008 33.8634 22.9008C33.8635 22.9008 33.8635 22.9008 33.8635 22.9008C33.8635 22.9008 33.8635 22.9008 33.8635 22.9008C33.8635 22.9008 33.8635 22.9008 33.8635 22.9008C33.8635 22.9008 33.8635 22.9008 33.8635 22.9008C33.8635 22.9008 33.8635 22.9008 33.8635 22.9008C33.8635 22.9008 33.8635 22.9008 33.8635 22.9008C33.8635 22.9008 33.8635 22.9008 33.8635 22.9008C33.8635 22.9008 33.8635 22.9008 33.8635 22.9008C33.8635 22.9008 33.8636 22.9008 33.8636 22.9008C33.8636 22.9008 33.8636 22.9008 33.8636 22.9008C33.8636 22.9008 33.8636 22.9008 33.8636 22.9008C33.8636 22.9008 33.8636 22.9008 33.8636 22.9008C33.8636 22.9008 33.8636 22.9008 33.8636 22.9008C33.8636 22.9008 33.8636 22.9008 33.8636 22.9008C33.8636 22.9008 33.8636 22.9008 33.8636 22.9008C33.8636 22.9008 33.8636 22.9008 33.8636 22.9008C33.8636 22.9008 33.8636 22.9008 33.8637 22.9008C33.8637 22.9008 33.8637 22.9008 33.8637 22.9008V20.9008ZM33.3408 22.7577C33.4043 22.7959 33.4651 22.8259 33.4829 22.835C33.5113 22.8493 33.4985 22.8436 33.4798 22.8319L34.5418 21.1371C34.473 21.094 34.4091 21.0622 34.3858 21.0503C34.352 21.0333 34.3606 21.0371 34.3718 21.0439L33.3408 22.7577ZM34.1765 20.9983L33.8655 20.9461L33.5341 22.9184L33.8451 22.9707L34.1765 20.9983ZM33.8964 22.9127C33.9227 22.9074 33.949 22.9022 33.975 22.8969C34.0012 22.8917 34.0271 22.8865 34.053 22.8813L33.6597 20.9203C33.6334 20.9256 33.6072 20.9309 33.5811 20.9361C33.555 20.9414 33.5291 20.9466 33.5032 20.9518L33.8964 22.9127ZM34.3264 21.0182C32.9246 20.2717 31.3479 19.8752 29.7512 19.8752V21.8752C31.0186 21.8752 32.2726 22.1904 33.3863 22.7835L34.3264 21.0182ZM29.7512 19.8752C27.148 19.8752 24.6955 20.891 22.8546 22.7322L24.2689 24.1463C25.7347 22.6803 27.6784 21.8752 29.7512 21.8752V19.8752ZM22.8522 22.7346C21.015 24.5848 19.9983 27.0354 19.9983 29.6453H21.9983C21.9983 27.5667 22.804 25.6217 24.2714 24.1438L22.8522 22.7346ZM19.9983 29.6453C19.9983 31.3126 20.425 32.9442 21.2245 34.3889L22.9744 33.4206C22.3377 32.2699 21.9983 30.9712 21.9983 29.6453H19.9983ZM23.0837 34.0814C23.0915 34.0381 23.0974 33.9978 23.1014 33.9708C23.1059 33.9404 23.1086 33.9217 23.112 33.9012L21.1391 33.5733C21.1135 33.7272 21.1292 33.6499 21.1152 33.7281L23.0837 34.0814ZM21.1402 33.9076L21.1945 34.2216L23.1652 33.881L23.111 33.5669L21.1402 33.9076ZM23.0603 33.5771C23.0429 33.5449 23.0271 33.5163 23.0143 33.4932C23.001 33.4692 22.9907 33.4507 22.9799 33.4306L21.219 34.3789C21.2364 34.4112 21.2522 34.4397 21.265 34.4628C21.2783 34.4868 21.2886 34.5054 21.2994 34.5255L23.0603 33.5771ZM21.1141 33.734C20.9597 34.6253 20.8771 35.5406 20.8771 36.4584H22.8771C22.8771 35.6598 22.949 34.8587 23.0848 34.0755L21.1141 33.734ZM20.8771 36.4584C20.8771 38.589 21.2935 40.6684 22.1193 42.6153L23.9605 41.8343C23.2415 40.1392 22.8771 38.3257 22.8771 36.4584H20.8771ZM22.1181 42.6126C22.9122 44.4997 24.0502 46.1987 25.4986 47.6509L26.9147 46.2386C25.6493 44.9698 24.656 43.4873 23.9616 41.837L22.1181 42.6126ZM25.4991 47.6515C26.9485 49.1025 28.6368 50.2434 30.5192 51.0373L31.2964 49.1945C29.655 48.5022 28.1827 47.5081 26.9142 46.2381L25.4991 47.6515ZM30.5167 51.0362C32.4623 51.863 34.5324 52.288 36.663 52.288V50.288C34.8023 50.288 32.9981 49.9176 31.2989 49.1955L30.5167 51.0362ZM36.663 52.288C37.5961 52.288 38.5237 52.1982 39.4226 52.0432L39.0827 50.0723C38.2823 50.2104 37.4689 50.288 36.663 50.288V52.288ZM39.7917 50.2155C39.7234 50.1718 39.6595 50.1393 39.6384 50.1283C39.6063 50.1117 39.6179 50.1171 39.6333 50.1267L38.5713 51.8215C38.6367 51.8625 38.699 51.8941 38.7173 51.9036C38.7465 51.9188 38.7327 51.9123 38.7136 51.9001L39.7917 50.2155ZM38.9387 51.9606L39.254 52.0129L39.581 50.0398L39.2658 49.9876L38.9387 51.9606ZM39.2282 50.0444C39.1756 50.0546 39.1217 50.0648 39.0667 50.0752L39.4385 52.0404C39.4941 52.0298 39.5508 52.0191 39.6068 52.0083L39.2282 50.0444ZM38.7592 51.9276C40.2216 52.7571 41.8751 53.188 43.5592 53.188V51.188C42.2163 51.188 40.9035 50.8446 39.746 50.188L38.7592 51.9276ZM43.5592 53.188C46.1625 53.188 48.614 52.1721 50.4548 50.3311L49.0405 48.917C47.5746 50.383 45.6318 51.188 43.5592 51.188V53.188ZM50.4548 50.3311C52.2968 48.4888 53.3111 46.0257 53.3111 43.4179H51.3111C51.3111 45.4986 50.5051 47.4521 49.0405 48.917L50.4548 50.3311ZM53.3111 43.4179C53.3111 41.7508 52.8823 40.1076 52.0761 38.6611L50.3291 39.6349C50.9695 40.7838 51.3111 42.0919 51.3111 43.4179H53.3111ZM36.7225 44.5424C31.6886 44.5424 30.1198 42.1123 30.1198 41.0109H28.1198C28.1198 43.7818 31.25 46.5424 36.7225 46.5424V44.5424ZM30.1198 41.0109C30.1198 40.5993 30.3739 40.3155 30.8629 40.3155V38.3155C29.3311 38.3155 28.1198 39.434 28.1198 41.0109H30.1198ZM30.8629 40.3155C31.1321 40.3155 31.2827 40.3927 31.4566 40.554C31.562 40.6518 31.6727 40.7797 31.813 40.9577C31.9323 41.1091 32.1211 41.3606 32.2875 41.5646C32.6573 42.0178 33.147 42.5354 33.8839 42.927C34.6236 43.3201 35.5406 43.5493 36.7225 43.5493V41.5493C35.807 41.5493 35.2238 41.3742 34.8226 41.161C34.4187 40.9463 34.127 40.6555 33.8371 40.3002C33.6737 40.0999 33.5631 39.9472 33.3838 39.7197C33.2254 39.5187 33.0381 39.2929 32.8165 39.0875C32.3365 38.6425 31.7172 38.3155 30.8629 38.3155V40.3155ZM36.7225 43.5493C39.177 43.5493 41.0553 42.1564 41.0553 40.1841H39.0553C39.0553 40.6188 38.5621 41.5493 36.7225 41.5493V43.5493ZM41.0553 40.1841C41.0553 39.658 40.924 39.0398 40.4831 38.4875C40.0443 37.9377 39.3834 37.5595 38.5244 37.3497L38.0499 39.2926C38.6052 39.4282 38.8284 39.6204 38.92 39.7352C39.0096 39.8474 39.0553 39.988 39.0553 40.1841H41.0553ZM38.5305 37.3512L33.8586 36.1791L33.3719 38.119L38.0438 39.2911L38.5305 37.3512ZM33.8581 36.179C32.125 35.7451 31.2482 35.0965 30.7857 34.4708C30.321 33.842 30.1699 33.0958 30.1699 32.2512H28.1699C28.1699 33.3219 28.36 34.5536 29.1773 35.6595C29.9969 36.7684 31.3428 37.611 33.3724 38.1191L33.8581 36.179ZM30.1699 32.2512C30.1699 30.6322 30.9009 29.5652 32.0138 28.858C33.1756 28.1198 34.7814 27.7673 36.4178 27.7673V25.7673C34.544 25.7673 32.5258 26.1631 30.9412 27.17C29.3077 28.2079 28.1699 29.8829 28.1699 32.2512H30.1699ZM36.4178 27.7673C37.8705 27.7673 39.4651 28.1769 40.6702 28.8413C41.9311 29.5365 42.4632 30.3229 42.4632 30.9535H44.4632C44.4632 29.198 43.0893 27.8913 41.6359 27.0899C40.1267 26.2578 38.1986 25.7673 36.4178 25.7673V27.7673ZM42.4632 30.9535C42.4632 31.1487 42.3915 31.2717 42.2711 31.368C42.1304 31.4804 41.8883 31.5756 41.5697 31.5756V33.5756C42.2615 33.5756 42.9662 33.3726 43.5196 32.9304C44.0932 32.472 44.4632 31.784 44.4632 30.9535H42.4632ZM41.5697 31.5756C41.3697 31.5756 41.2531 31.523 41.0998 31.3938C41.0059 31.3148 40.905 31.2109 40.7708 31.0619C40.6507 30.9286 40.4799 30.7312 40.3096 30.5522C39.9439 30.1676 39.4656 29.7388 38.7695 29.4165C38.075 29.0949 37.2245 28.907 36.1401 28.907V30.907C36.9883 30.907 37.543 31.0526 37.9291 31.2314C38.3136 31.4094 38.5915 31.6478 38.8603 31.9304C39.0072 32.0849 39.1232 32.2211 39.2849 32.4006C39.4324 32.5643 39.6082 32.7523 39.8113 32.9234C40.252 33.2947 40.8106 33.5756 41.5697 33.5756V31.5756ZM36.1401 28.907C35.045 28.907 34.0679 29.1533 33.3374 29.6922C32.5767 30.2534 32.1602 31.0805 32.1602 32.0209H34.1602C34.1602 31.7159 34.2749 31.486 34.5248 31.3016C34.805 31.0949 35.3178 30.907 36.1401 30.907V28.907ZM32.1602 32.0209C32.1602 33.1589 32.8955 33.8436 33.6069 34.2275C34.2874 34.5948 35.127 34.7948 35.7649 34.942L36.2147 32.9932C35.5375 32.8369 34.9623 32.6863 34.5567 32.4675C34.1821 32.2653 34.1602 32.1283 34.1602 32.0209H32.1602ZM35.7741 34.9441L39.2321 35.708L39.6635 33.7551L36.2055 32.9912L35.7741 34.9441ZM39.2295 35.7074C40.9582 36.0942 41.9157 36.7628 42.4523 37.4563C42.9923 38.154 43.1969 38.9943 43.1969 39.891H45.1969C45.1969 38.6946 44.9214 37.379 44.034 36.2323C43.1433 35.0812 41.7263 34.2166 39.6662 33.7557L39.2295 35.7074ZM43.1969 39.891C43.1969 41.2327 42.6941 42.3498 41.704 43.1527C40.6916 43.9736 39.0716 44.5424 36.7225 44.5424V46.5424C39.371 46.5424 41.4882 45.9025 42.9636 44.7062C44.4613 43.4917 45.1969 41.7832 45.1969 39.891H43.1969ZM38.5713 51.8215C38.6367 51.8625 38.699 51.8941 38.7173 51.9036C38.7465 51.9188 38.7327 51.9123 38.7136 51.9001L39.7917 50.2155C39.7234 50.1718 39.6595 50.1393 39.6384 50.1283C39.6063 50.1117 39.6179 50.1171 39.6333 50.1267L38.5713 51.8215ZM39.4385 52.0404C39.4941 52.0298 39.5508 52.0191 39.6068 52.0083L39.2282 50.0444C39.1756 50.0546 39.1217 50.0648 39.0667 50.0752L39.4385 52.0404ZM39.581 50.0398L39.2658 49.9876L38.9387 51.9606L39.254 52.0129L39.581 50.0398ZM52.1619 39.4795C52.1793 39.3749 52.1774 39.3773 52.1869 39.3247L50.2183 38.9713C50.209 39.0233 50.1925 39.1305 50.189 39.1515L52.1619 39.4795ZM52.0903 38.6876C52.0817 38.6711 52.076 38.6592 52.0583 38.6236C52.0435 38.5939 52.0218 38.5507 51.9953 38.5034L50.2492 39.4786C50.2739 39.5228 50.2531 39.4893 50.3149 39.6084L52.0903 38.6876ZM50.1354 39.1528L50.1886 39.4773L52.1623 39.1537L52.1091 38.8292L50.1354 39.1528ZM21.1391 33.5733C21.1135 33.7272 21.1292 33.6499 21.1152 33.7281L23.0837 34.0814C23.0915 34.0381 23.0974 33.9978 23.1014 33.9708C23.1059 33.9404 23.1086 33.9217 23.112 33.9012L21.1391 33.5733ZM21.219 34.3789C21.2364 34.4112 21.2522 34.4397 21.265 34.4628C21.2783 34.4868 21.2886 34.5054 21.2994 34.5255L23.0603 33.5771C23.0429 33.5449 23.0271 33.5163 23.0143 33.4932C23.001 33.4692 22.9907 33.4507 22.9799 33.4306L21.219 34.3789ZM23.1652 33.881L23.111 33.5669L21.1402 33.9076L21.1945 34.2216L23.1652 33.881ZM34.5418 21.1371C34.473 21.094 34.4091 21.0622 34.3858 21.0503C34.352 21.0333 34.3606 21.0371 34.3718 21.0439L33.3408 22.7577C33.4043 22.7959 33.4651 22.8259 33.4829 22.835C33.5113 22.8493 33.4985 22.8436 33.4798 22.8319L34.5418 21.1371ZM33.6597 20.9203C33.6334 20.9256 33.6072 20.9309 33.5811 20.9361C33.555 20.9414 33.5291 20.9466 33.5032 20.9518L33.8964 22.9127C33.9227 22.9074 33.949 22.9022 33.975 22.8969C34.0012 22.8917 34.0271 22.8865 34.053 22.8813L33.6597 20.9203ZM33.5341 22.9184L33.8451 22.9707L34.1765 20.9983L33.8655 20.9461L33.5341 22.9184Z" fill="#576665" mask="url(#path-2-inside-2_446_7000)"/>
</svg>
