<svg width="26" height="26" viewBox="0 0 26 26" fill="none" xmlns="http://www.w3.org/2000/svg">
<path d="M11.9999 0.687215C12.3794 -0.229072 13.6206 -0.229072 14.0001 0.687215L16.8883 7.66014C17.0462 8.04149 17.3897 8.30278 17.785 8.34221L25.0119 9.06317C25.9615 9.15791 26.3451 10.3937 25.63 11.0548L20.1881 16.0852C19.8904 16.3604 19.7592 16.7831 19.8456 17.1888L21.4238 24.6073C21.6312 25.5822 20.6271 26.346 19.8056 25.8382L13.5542 21.9743C13.2123 21.763 12.7877 21.763 12.4458 21.9743L6.19437 25.8382C5.37289 26.346 4.36875 25.5822 4.57615 24.6073L6.15444 17.1888C6.24076 16.7831 6.10955 16.3604 5.81193 16.0852L0.370039 11.0548C-0.34506 10.3937 0.0384856 9.15791 0.988143 9.06317L8.21502 8.34221C8.61026 8.30278 8.95377 8.04149 9.11172 7.66014L11.9999 0.687215Z" fill="black"/>
</svg>
