<svg width="73" height="73" viewBox="0 0 73 73" fill="none" xmlns="http://www.w3.org/2000/svg">
<path opacity="0.1" d="M36.4834 0.5C56.3565 0.5 72.4669 16.6103 72.4669 36.4834C72.4669 56.3565 56.3565 72.4669 36.4834 72.4669C16.6103 72.4669 0.5 56.3565 0.5 36.4834C0.5 16.6103 16.6103 0.5 36.4834 0.5Z" fill="#576665" stroke="#576665"/>
<path d="M49.5567 30.3538L49.3352 30.5023V30.769V30.7708V30.7725V30.7743V30.776V30.7778V30.7795V30.7813V30.783V30.7848V30.7865V30.7883V30.79V30.7918V30.7935V30.7953V30.797V30.7988V30.8006V30.8023V30.8041V30.8058V30.8076V30.8093V30.811V30.8128V30.8145V30.8163V30.818V30.8198V30.8215V30.8233V30.825V30.8268V30.8285V30.8303V30.832V30.8338V30.8355V30.8372V30.839V30.8407V30.8425V30.8442V30.846V30.8477V30.8495V30.8512V30.8529V30.8547V30.8564V30.8582V30.8599V30.8616V30.8634V30.8651V30.8669V30.8686V30.8703V30.8721V30.8738V30.8755V30.8773V30.879V30.8808V30.8825V30.8842V30.886V30.8877V30.8894V30.8912V30.8929V30.8946V30.8964V30.8981V30.8998V30.9016V30.9033V30.905V30.9068V30.9085V30.9102V30.9119V30.9137V30.9154V30.9171V30.9189V30.9206V30.9223V30.924V30.9258V30.9275V30.9292V30.931V30.9327V30.9344V30.9361V30.9378V30.9396V30.9413V30.943V30.9447V30.9465V30.9482V30.9499V30.9516V30.9533V30.9551V30.9568V30.9585V30.9602V30.9619V30.9637V30.9654V30.9671V30.9688V30.9705V30.9722V30.974V30.9757V30.9774V30.9791V30.9808V30.9825V30.9842V30.986V30.9877V30.9894V30.9911V30.9928V30.9945V30.9962V30.9979V30.9996V31.0013V31.0031V31.0048V31.0065V31.0082V31.0099V31.0116V31.0133V31.015V31.0167V31.0184V31.0201V31.0218V31.0235V31.0252V31.0269V31.0286V31.0303V31.032V31.0337V31.0354V31.0371V31.0388V31.0405V31.0422V31.0439V31.0456V31.0473V31.049V31.0507V31.0524V31.0541V31.0558V31.0575V31.0591V31.0608V31.0625V31.0642V31.0659V31.0676V31.0693V31.071V31.0727V31.0743V31.076V31.0777V31.0794V31.0811V31.0828V31.0845V31.0861V31.0878V31.0895V31.0912V31.0929V31.0946V31.0962V31.0979V31.0996V31.1013V31.103V31.1046V31.1063V31.108V31.1097V31.1113V31.113V31.1147V31.1164V31.118V31.1197V31.1214V31.1231V31.1247V31.1264V31.1281V31.1297V31.1314V31.1331V31.1347V31.1364V31.1381V31.1397V31.1414V31.1431V31.1447V31.1464V31.1481V31.1497V31.1514V31.153V31.1547V31.1564V31.158V31.1597V31.1613V31.163V31.1647V31.1663V31.168V31.1696V31.1713V31.1729V31.1746V31.1762V31.1779V31.1796V31.1812V31.1829V31.1845V31.1862V31.1878V31.1894V31.1911V31.1927V31.1944V31.196V31.1977V31.1993V31.201V31.2026V31.2043V31.2059V31.2075V31.2092V31.2108V31.2125V31.2141V31.2157V31.2174V31.219V31.2206V31.2223V31.2239V31.2256V31.2272V31.2288V31.2305V31.2321V31.2337V31.2353V31.237V31.2386V31.2402V31.2419V31.2435V31.2451V31.2467V31.2484V31.25V31.2516V31.2532V31.2549V31.2565V31.2581V31.2597V31.2613V31.263V31.2646V31.2662V31.2678V31.2694V31.271V31.2727V31.2743V31.2759V31.2775V31.2791V31.2807V31.2823V31.2839V31.2855V31.2872V31.2888V31.2904V31.292V31.2936V31.2952V31.2968V31.2984V31.3V31.3016V31.3032V31.3048V31.3064V31.308V31.3096V31.3112V31.3128V31.3144V31.316V31.3176V31.3192V31.3208V31.3224V31.3239V31.3255V31.3271V31.3287V31.3303V31.3319V31.3335V31.3351V31.3367V31.3382V31.3398V31.3414V31.343V31.3446V31.3462V31.3477V31.3493V31.3509V31.3525V31.354V31.3556V31.3572V31.3588V31.3603V31.3619V31.3635V31.3651V31.3666V31.3682V31.3698V31.3713V31.3729V31.3745V31.376V31.3776V31.3792V31.3807V31.3823V31.3839V31.3854V31.387V31.3886V31.3901V31.3917V31.3932V31.3948V31.3963V31.3979V31.3994V31.401V31.4026V31.4041V31.4057V31.4072V31.4088V31.4103V31.4119V31.4134V31.4149V31.4165V31.418V31.4196V31.4211V31.4227V31.4242V31.4257V31.4273V31.4288V31.4304V31.4319V31.4334V31.435V31.4365V31.438V31.4396V31.4411V31.4426V31.4442V31.4457V31.4472V31.4487V31.4503V31.4518V31.4533V31.4548V31.4564V31.4579V31.4594V31.4609V31.4625V31.464V31.4655V31.467V31.4685V31.47V31.4716V31.4731V31.4746V31.4761V31.4776V31.4791V31.4806V31.4821V31.4836V31.4851V31.4867V31.4882V31.4897V31.4912V31.4927V31.4942V31.4957V31.4972V31.4987V31.5002V31.5017V31.5032V31.5046V31.5061V31.5076V31.5091V31.5106V31.5121V31.5136V31.5151V31.5166V31.5181V31.5195V31.521V31.5225V31.524V31.5255V31.527V31.5284V31.5299V31.5314V31.5329V31.5343V31.5358V31.5373V31.5388V31.5402V31.5417V31.5432V31.5446V31.5461V31.5476V31.5491V31.5505V31.552V31.5534V31.5549V31.5564V31.5578V31.5593V31.5607V31.5622V31.5637V31.5651V31.5666V31.568V31.5695V31.5709V31.5724V31.5738V31.5753V31.5767V31.5782V31.5796V31.5811V31.5825V31.584V31.5854V31.5868V31.5883V31.5897V31.5912V31.5926V31.594V31.5955V31.5969V31.5983V31.5998V31.6012C49.3352 39.9827 42.6081 49.6646 30.3122 49.6646C27.293 49.6646 24.4632 48.9957 21.9281 47.8253C25.0256 47.7134 27.902 46.6566 30.2142 44.9525L31.4092 44.0719L29.9249 44.0501C27.4196 44.0133 25.2878 42.5931 24.3105 40.6158C24.4788 40.6276 24.6532 40.6339 24.8398 40.6339C25.4936 40.6339 26.1543 40.5512 26.7754 40.3697L26.7269 39.3983C24.0351 38.896 21.9888 36.8139 21.6646 34.2392C22.4498 34.5528 23.3059 34.7374 24.2124 34.7639L26.0338 34.8172L24.4947 33.8418C22.7879 32.7602 21.6629 30.9158 21.6629 28.8161C21.6629 27.9543 21.8562 27.1395 22.1891 26.405C25.6413 30.1499 30.6364 32.5732 36.1957 32.855L36.8967 32.8905L36.7012 32.2164C36.5881 31.8264 36.5459 31.3361 36.5459 30.8577C36.5459 27.5292 39.3619 24.8222 42.9178 24.8222C44.756 24.8222 46.4205 25.5574 47.5505 26.7133L47.7364 26.9035L47.998 26.8556C49.1302 26.6484 50.1965 26.3141 51.2106 25.8691C50.6678 26.7247 49.91 27.4411 49.0102 27.9757L49.3246 28.9021C50.1683 28.8018 50.9849 28.6424 51.7732 28.4139C51.1262 29.1452 50.3836 29.7991 49.5567 30.3538Z" fill="#576665" stroke="#576665"/>
</svg>
